<svg width="20" height="21" viewBox="0 0 20 21" fill="none" xmlns="http://www.w3.org/2000/svg">
<path d="M17.7778 0.130859H2.22222C0.994444 0.130859 0 1.1253 0 2.35308V17.9086C0 19.1364 0.994444 20.1309 2.22222 20.1309H17.7778C19.0056 20.1309 20 19.1364 20 17.9086V2.35308C20 1.1253 19.0056 0.130859 17.7778 0.130859ZM6.66667 15.6864H3.86333V7.90864H6.66667V15.6864ZM5.21556 6.48308C4.35889 6.48308 3.78667 5.91197 3.78667 5.14975C3.78667 4.38753 4.35778 3.81642 5.31 3.81642C6.16667 3.81642 6.73889 4.38753 6.73889 5.14975C6.73889 5.91197 6.16778 6.48308 5.21556 6.48308ZM16.6667 15.6864H13.9533V11.4353C13.9533 10.2597 13.23 9.98864 12.9589 9.98864C12.6878 9.98864 11.7833 10.1697 11.7833 11.4353C11.7833 11.6164 11.7833 15.6864 11.7833 15.6864H8.98V7.90864H11.7833V8.99419C12.1444 8.36086 12.8678 7.90864 14.2244 7.90864C15.5811 7.90864 16.6667 8.99419 16.6667 11.4353V15.6864Z" fill="black"/>
</svg>
