<svg width="22" height="20" viewBox="0 0 22 20" fill="none" xmlns="http://www.w3.org/2000/svg">
<path d="M20.7362 0.262988C20.3802 -0.0411873 19.8211 -0.0847091 19.243 0.149161H19.242C18.634 0.394988 2.03063 7.57083 1.35473 7.86401C1.23179 7.90705 0.158127 8.31071 0.268721 9.20984C0.367448 10.0205 1.23037 10.3562 1.33574 10.395L5.55682 11.8513C5.83687 12.7906 6.86924 16.2561 7.09755 16.9964C7.23994 17.458 7.47205 18.0644 7.87883 18.1892C8.23576 18.3279 8.59081 18.2012 8.82054 18.0194L11.4012 15.6076L15.5672 18.8813L15.6665 18.941C15.9493 19.0673 16.2204 19.1304 16.4791 19.1304C16.6789 19.1304 16.8706 19.0927 17.0539 19.0171C17.678 18.7588 17.9277 18.1596 17.9538 18.0917L21.0656 1.79391C21.2555 0.923468 20.9916 0.480597 20.7362 0.262988ZM9.27952 12.4338L7.85557 16.2599L6.43161 11.4773L17.3486 3.34682L9.27952 12.4338Z" fill="#080108"/>
</svg>
