<svg width="472" height="88" viewBox="0 0 472 88" fill="none" xmlns="http://www.w3.org/2000/svg">
<path d="M61.8649 0.00956307C59.3401 0.00956307 44.9072 0.071723 42.3203 0.200824C39.7335 0.325144 37.1753 0.578566 34.6505 0.961089C23.6683 2.72548 15.1488 6.93323 9.08739 13.57C3.03072 20.2115 0 29.0335 0 40.0358V44.3966C0 46.5482 0.0334095 48.6665 0.0954558 50.7512C0.162275 52.836 0.381823 54.9542 0.758874 57.1059C2.01889 63.1784 4.32415 68.1369 7.66987 71.9956C11.0156 75.8495 14.9579 78.9192 19.5064 81.1953C24.0501 83.4713 28.9756 85.0205 34.2782 85.8429C39.5807 86.6653 56.758 87.0765 62.0606 87.0765C64.5854 87.0765 67.0481 87.0096 69.4441 86.8901C71.84 86.761 74.2407 86.5123 76.6415 86.1298C84.5929 84.7384 91.4419 81.5108 97.1883 76.4568C102.93 71.3979 106.562 64.7563 108.075 56.5369C108.452 54.5143 108.672 52.4869 108.738 50.4643C108.801 48.4417 108.834 46.4144 108.834 44.3918C108.834 42.2401 108.801 40.1219 108.738 38.0371C108.672 35.9524 108.452 33.8915 108.075 31.8689C106.686 23.396 103.154 16.5059 97.4699 11.1936C91.7903 5.88129 84.9079 2.46727 76.8324 0.951526C74.3076 0.444683 71.8162 0.162572 69.3534 0.0956307C66.8906 0.0286892 64.3992 0 61.8744 0L61.8649 0.00956307Z" fill="#B3FF01"/>
<path d="M49.7702 55.8817L62.0792 43.5501L49.7559 31.209H51.4407L63.7592 43.5501L51.455 55.8817H49.7702Z" fill="#B3FF01"/>
<path d="M52.6242 28.3398H42.8447L58.027 43.5499L42.859 58.7504H52.6433L67.8064 43.5499L52.6242 28.3398Z" fill="black"/>
<path d="M132.062 28.5486L132.11 30.1386C132.207 31.8738 132.694 33.1974 133.576 34.1134C134.458 35.0295 135.812 35.4855 137.641 35.4855H143.268C144.392 35.4855 145.306 35.3321 146.011 35.0295C146.716 34.7228 147.288 34.291 147.719 33.726C148.15 33.1651 148.448 32.4791 148.609 31.6761C148.77 30.873 148.851 29.9731 148.851 28.9764C148.851 27.8182 148.689 26.8538 148.371 26.083C148.049 25.3123 147.586 24.7029 146.977 24.251C146.369 23.803 145.624 23.4883 144.742 23.3107C143.86 23.1332 142.857 23.0444 141.733 23.0444H137.161C135.844 23.0444 134.636 22.8587 133.528 22.4915C132.42 22.1243 131.474 21.5755 130.688 20.8532C129.903 20.1308 129.286 19.239 128.835 18.1777C128.384 17.1164 128.163 15.9138 128.163 14.562C128.163 12.7945 128.437 11.3418 128.98 10.1997C129.524 9.05773 130.233 8.1659 131.099 7.52428C131.965 6.88265 132.928 6.43069 133.987 6.17646C135.047 5.91819 136.106 5.78906 137.161 5.78906H143.175C145.805 5.78906 147.94 6.53561 149.576 8.0287C151.211 9.52179 152.029 11.7009 152.029 14.562V14.9938C152.029 15.1229 152.013 15.2682 151.98 15.4256H147.553C147.553 14.5902 147.489 13.8276 147.36 13.1375C147.231 12.4474 146.998 11.8462 146.663 11.3296C146.325 10.8172 145.862 10.4217 145.27 10.1473C144.678 9.87287 143.916 9.73567 142.986 9.73567H138.128C137.616 9.73567 137.044 9.76795 136.42 9.83252C135.796 9.89709 135.2 10.0827 134.64 10.3854C134.08 10.6921 133.605 11.1723 133.222 11.83C132.835 12.4878 132.646 13.3958 132.646 14.5539C132.646 16.386 133.101 17.5885 134.015 18.1696C134.93 18.7467 136.203 19.0372 137.842 19.0372H142.414C144.049 19.0372 145.539 19.2309 146.889 19.6143C148.234 20.0017 149.382 20.5949 150.329 21.3979C151.275 22.201 152.013 23.23 152.54 24.481C153.068 25.736 153.334 27.2291 153.334 28.9643C153.334 30.5381 153.14 31.9706 152.758 33.2539C152.371 34.5412 151.787 35.6469 151.001 36.5791C150.216 37.5112 149.213 38.2336 147.993 38.7501C146.772 39.2626 145.33 39.5209 143.662 39.5209H137.649C134.281 39.5209 131.78 38.5725 130.144 36.6759C128.509 34.7793 127.691 32.2087 127.691 28.9643V28.5285H132.07L132.062 28.5486Z" fill="#0C0C0C"/>
<path d="M194.895 31.6849V15.4385H199.128V31.5841C199.128 32.1611 199.16 32.7099 199.225 33.2224C199.289 33.7349 199.442 34.195 199.68 34.5945C199.922 34.998 200.272 35.3168 200.739 35.5589C201.203 35.801 201.839 35.9221 202.641 35.9221H204.276C205.335 35.9221 206.153 35.6719 206.729 35.1756C207.305 34.6792 207.611 33.8842 207.643 32.7906L207.692 31.6809H212.07V15.4385H216.304V39.5378H212.07V32.3064H211.349C211.285 34.5218 210.684 36.3055 209.544 37.6573C208.405 39.0051 206.632 39.6831 204.228 39.6831H202.254C200.651 39.6831 199.366 39.4652 198.403 39.0334C197.44 38.6016 196.695 38.0124 196.167 37.274C195.64 36.5355 195.293 35.684 195.132 34.7195C194.971 33.7551 194.891 32.7422 194.891 31.6809L194.895 31.6849Z" fill="#0C0C0C"/>
<path d="M222.075 39.4934V15.4385H226.309V22.6699H227.03C227.094 20.4222 227.606 18.6547 228.568 17.3674C229.531 16.0841 231.199 15.4385 233.571 15.4385H236.697V19.151H234.389C233.136 19.151 232.238 19.3851 231.694 19.8492C231.15 20.3173 230.828 21.1122 230.731 22.2341L230.683 23.2954H226.305V39.4894H222.071L222.075 39.4934Z" fill="#0C0C0C"/>
<path d="M239.541 23.2954C239.927 21.2373 240.785 19.5344 242.115 18.1866C243.444 16.8388 245.168 15.9873 247.286 15.6322C247.862 15.5353 248.418 15.4788 248.946 15.4627C249.474 15.4465 250.013 15.4385 250.557 15.4385C251.069 15.4385 251.6 15.4465 252.144 15.4627C252.688 15.4788 253.236 15.5353 253.78 15.6322C255.769 15.955 257.357 16.75 258.545 18.0171C259.733 19.2882 260.39 20.8378 260.518 22.6699V23.0573H256.43C256.237 21.8668 255.725 20.9306 254.891 20.2366C254.058 19.5465 252.853 19.1995 251.282 19.1995H249.599C248.571 19.1995 247.673 19.377 246.904 19.7281C246.134 20.0832 245.502 20.5715 245.003 21.197C244.503 21.8225 244.137 22.565 243.895 23.4124C243.653 24.2639 243.532 25.1718 243.532 26.1363V28.0652C243.532 29.0619 243.629 30.0506 243.822 31.0312C244.016 32.0118 244.35 32.8794 244.833 33.634C245.313 34.3887 245.949 35.002 246.735 35.4661C247.52 35.9342 248.491 36.1642 249.647 36.1642H251.476C252.535 36.1642 253.401 35.9544 254.074 35.5387C254.746 35.1231 255.278 34.5501 255.661 33.8277C256.047 33.1054 256.309 32.2701 256.454 31.3218C256.599 30.3734 256.672 29.3686 256.672 28.3073H260.809C260.841 28.7593 260.857 29.2153 260.857 29.6794C260.857 30.1434 260.825 30.6035 260.76 31.0514C260.631 32.0804 260.414 33.0691 260.112 34.0174C259.806 34.9657 259.375 35.8252 258.811 36.596C258.251 37.3668 257.566 38.0245 256.764 38.5733C255.963 39.1181 255 39.5055 253.876 39.7315C253.328 39.8284 252.785 39.8848 252.241 39.901C251.697 39.9171 251.101 39.9252 250.461 39.9252H249.498C249.111 39.9252 248.72 39.9171 248.318 39.901C247.915 39.8848 247.524 39.8284 247.137 39.7315C246.014 39.5378 245.019 39.1706 244.153 38.6218C243.287 38.077 242.533 37.4152 241.893 36.6444C241.253 35.8737 240.737 35.0061 240.354 34.0416C239.968 33.0771 239.698 32.0643 239.537 31.007C239.472 30.5591 239.416 29.986 239.367 29.296C239.319 28.6059 239.295 27.8836 239.295 27.125C239.295 26.3663 239.311 25.648 239.343 24.9539C239.376 24.2639 239.44 23.707 239.537 23.2913L239.541 23.2954Z" fill="#0C0C0C"/>
<path d="M265.327 23.2954C265.714 21.2373 266.536 19.5263 267.804 18.1624C269.073 16.7984 270.813 15.9389 273.025 15.5837C273.536 15.5192 274.068 15.4788 274.612 15.4627C275.156 15.4465 275.703 15.4385 276.247 15.4385H277.113C278.555 15.4385 279.856 15.6725 281.008 16.1366C282.164 16.6047 283.139 17.2625 283.945 18.1139C284.746 18.9654 285.354 19.9944 285.773 21.197C286.188 22.4036 286.398 23.7272 286.398 25.1718V28.3517H269.126V29.8448C269.126 31.7092 269.653 33.2184 270.713 34.3765C271.772 35.5347 273.214 36.1118 275.043 36.1118H277.303C278.072 36.1118 278.736 35.9826 279.3 35.7244C279.86 35.4661 280.344 35.1312 280.742 34.7115C281.145 34.2958 281.455 33.8116 281.681 33.2668C281.907 32.722 282.048 32.1409 282.112 31.5316H286.152C286.12 32.4961 285.943 33.4202 285.624 34.3039C285.302 35.1877 284.863 35.9907 284.303 36.713C283.743 37.4354 283.059 38.0568 282.257 38.5693C281.455 39.0858 280.541 39.4531 279.514 39.679C278.998 39.7759 278.487 39.8324 277.975 39.8485C277.464 39.8647 276.932 39.8727 276.388 39.8727H275.28C272.489 39.8727 270.245 39.0939 268.546 37.5362C266.846 35.9786 265.77 33.7995 265.323 31.007C265.227 30.3654 265.17 29.7157 265.154 29.0539C265.138 28.3961 265.13 27.7464 265.13 27.1007V25.196C265.13 24.5706 265.194 23.937 265.323 23.2913L265.327 23.2954ZM282.406 24.9822C282.374 24.1791 282.261 23.4245 282.068 22.7183C281.874 22.0121 281.576 21.3947 281.177 20.862C280.775 20.3334 280.239 19.9137 279.566 19.607C278.894 19.3003 278.076 19.151 277.113 19.151H274.853C273.121 19.151 271.732 19.5949 270.693 20.4746C269.649 21.3584 269.13 22.6376 269.13 24.3083V24.9822H282.41H282.406Z" fill="#0C0C0C"/>
<path d="M291.453 39.5418V15.4385H295.687V17.5127C296.198 16.871 296.851 16.3626 297.636 15.9954C298.422 15.6281 299.376 15.4425 300.5 15.4425H303.05C304.621 15.4425 305.914 15.6766 306.925 16.1406C307.936 16.6087 308.745 17.2262 309.354 17.9969C309.994 17.2262 310.796 16.6087 311.758 16.1406C312.721 15.6766 313.905 15.4425 315.319 15.4425H318.348C319.951 15.4425 321.26 15.6846 322.271 16.1648C323.282 16.6451 324.092 17.2746 324.7 18.0453C325.308 18.8161 325.727 19.6998 325.953 20.6966C326.179 21.6933 326.291 22.7223 326.291 23.7796V39.5418H322.106V23.9249C322.106 23.3478 322.05 22.7748 321.937 22.2139C321.824 21.653 321.607 21.1445 321.289 20.6966C320.966 20.2487 320.551 19.8855 320.036 19.6111C319.52 19.3367 318.848 19.1995 318.014 19.1995H315.561C315.017 19.1995 314.469 19.256 313.925 19.3689C313.378 19.4819 312.89 19.7079 312.459 20.0429C312.024 20.3818 311.674 20.8459 311.4 21.4391C311.126 22.0323 310.993 22.8111 310.993 23.7756V39.5378H306.808V23.9249C306.808 23.3478 306.751 22.7748 306.639 22.2139C306.526 21.653 306.308 21.1445 305.99 20.6966C305.668 20.2487 305.253 19.8855 304.737 19.6111C304.222 19.3367 303.549 19.1995 302.715 19.1995H300.262C299.719 19.1995 299.171 19.256 298.627 19.3689C298.083 19.4819 297.592 19.7079 297.161 20.0429C296.73 20.3818 296.375 20.8459 296.101 21.4391C295.828 22.0323 295.691 22.8111 295.691 23.7756V39.5378H291.457L291.453 39.5418Z" fill="#0C0C0C"/>
<path d="M339.806 24.5967H348.66V22.9099C348.66 21.8486 348.346 20.9487 347.721 20.2103C347.097 19.4718 346.078 19.1005 344.664 19.1005H340.189C338.872 19.1005 337.905 19.3507 337.277 19.8471C336.652 20.3475 336.306 21.0779 336.242 22.0423H332.25C332.25 21.1101 332.387 20.2425 332.657 19.4395C332.931 18.6365 333.362 17.9383 333.958 17.3411C334.55 16.7479 335.319 16.2798 336.266 15.9449C337.212 15.6059 338.372 15.4404 339.754 15.4404H345.478C346.73 15.4404 347.818 15.6261 348.749 15.9933C349.679 16.3645 350.448 16.869 351.057 17.5106C351.665 18.1522 352.124 18.9068 352.426 19.7744C352.732 20.642 352.881 21.5742 352.881 22.571L352.833 39.5398H348.599V32.3083H347.83C347.83 33.3696 347.669 34.3664 347.351 35.2986C347.029 36.2307 346.565 37.0418 345.957 37.7319C345.349 38.422 344.592 38.9627 343.697 39.3461C342.799 39.7335 341.74 39.9231 340.523 39.9231H338.888C336.258 39.9231 334.3 39.2008 333.019 37.7521C331.734 36.3074 331.094 34.4431 331.094 32.159C331.094 30.8758 331.311 29.758 331.742 28.8097C332.177 27.8613 332.777 27.0744 333.547 26.449C334.316 25.8235 335.231 25.3554 336.29 25.0527C337.349 24.746 338.517 24.5967 339.802 24.5967H339.806ZM335.186 32.0662C335.186 32.6756 335.243 33.2486 335.355 33.7772C335.468 34.3059 335.67 34.7659 335.956 35.1493C336.246 35.5366 336.628 35.8393 337.112 36.0653C337.591 36.2913 338.203 36.4043 338.94 36.4043H340.382C341.663 36.4043 342.634 35.9886 343.295 35.1493C343.951 34.3139 344.281 33.2849 344.281 32.0662V31.6788H348.612L348.66 28.1115H340.241C338.606 28.1115 337.353 28.4102 336.487 29.0034C335.621 29.5966 335.186 30.6175 335.186 32.0622V32.0662Z" fill="#0C0C0C"/>
<path d="M358.671 51.6391V15.4861H362.904V22.7175H363.625C363.69 20.4698 364.306 18.6781 365.478 17.3424C366.65 16.0107 368.439 15.3408 370.844 15.3408H373.248C374.884 15.3408 376.185 15.6637 377.143 16.3053C378.106 16.9469 378.835 17.7661 379.331 18.7628C379.826 19.7596 380.156 20.8693 380.318 22.088C380.479 23.3107 380.559 24.481 380.559 25.6068V29.0773C380.559 32.4509 379.862 35.0456 378.465 36.8615C377.071 38.6775 374.799 39.5854 371.657 39.5854H362.9V51.6351H358.667L358.671 51.6391ZM370.892 35.8285C372.048 35.8285 372.978 35.659 373.683 35.324C374.388 34.9851 374.936 34.5291 375.319 33.952C375.705 33.375 375.967 32.6728 376.112 31.8536C376.257 31.0344 376.33 30.1426 376.33 29.1782V26.5269C376.33 25.4979 376.314 24.5334 376.281 23.6335C376.249 22.7336 376.104 21.9467 375.846 21.2728C375.589 20.5989 375.166 20.0663 374.574 19.6829C373.981 19.2955 373.123 19.1058 372 19.1058H370.795C369.768 19.1058 368.942 19.356 368.318 19.8524C367.694 20.3528 367.347 21.1477 367.283 22.2373V23.347H362.904V35.8325H370.892V35.8285Z" fill="#0C0C0C"/>
<path d="M385.854 34.8633H390.184V39.4919H385.854V34.8633Z" fill="#0C0C0C"/>
<path d="M396.195 51.6391V15.4861H400.429V22.7175H401.15C401.214 20.4698 401.831 18.6781 403.003 17.3424C404.175 16.0107 405.963 15.3408 408.368 15.3408H410.773C412.408 15.3408 413.709 15.6637 414.668 16.3053C415.631 16.9469 416.36 17.7661 416.855 18.7628C417.351 19.7596 417.681 20.8693 417.842 22.088C418.003 23.3107 418.084 24.481 418.084 25.6068V29.0773C418.084 32.4509 417.387 35.0456 415.989 36.8615C414.595 38.6775 412.324 39.5854 409.182 39.5854H400.425V51.6351H396.191L396.195 51.6391ZM408.416 35.8285C409.572 35.8285 410.503 35.659 411.208 35.324C411.913 34.9851 412.461 34.5291 412.843 33.952C413.226 33.375 413.492 32.6728 413.637 31.8536C413.782 31.0344 413.854 30.1426 413.854 29.1782V26.5269C413.854 25.4979 413.838 24.5334 413.806 23.6335C413.774 22.7336 413.629 21.9467 413.371 21.2728C413.113 20.5989 412.69 20.0663 412.098 19.6829C411.506 19.2955 410.648 19.1058 409.524 19.1058H408.32C407.293 19.1058 406.467 19.356 405.843 19.8524C405.218 20.3528 404.872 21.1477 404.807 22.2373V23.347H400.429V35.8325H408.416V35.8285Z" fill="#0C0C0C"/>
<path d="M423.862 39.4934V15.4385H428.096V22.6699H428.817C428.881 20.4222 429.393 18.6547 430.356 17.3674C431.318 16.0841 432.986 15.4385 435.358 15.4385H438.484V19.151H436.176C434.923 19.151 434.025 19.3851 433.481 19.8492C432.933 20.3173 432.615 21.1122 432.519 22.2341L432.47 23.2954H428.092V39.4894H423.858L423.862 39.4934Z" fill="#0C0C0C"/>
<path d="M458.691 19.2459C459.388 19.2459 460.065 19.254 460.705 19.2701C461.165 19.2822 461.644 19.3387 462.127 19.4356H462.152L462.176 19.4437C463.702 19.7302 464.947 20.3435 465.99 21.3161C466.929 22.1958 467.505 23.3499 467.75 24.847L467.759 24.8914L467.767 24.9358C467.835 25.295 467.875 25.6703 467.887 26.0496C467.904 26.6065 467.912 27.1714 467.912 27.7283C467.912 28.2489 467.904 28.7856 467.887 29.3142C467.875 29.6814 467.835 30.0486 467.767 30.4239C467.505 31.8565 466.941 32.9097 466.002 33.737C464.947 34.6651 463.702 35.2462 462.208 35.5166C461.684 35.5973 461.153 35.6538 460.633 35.682C460.017 35.7143 459.384 35.7305 458.752 35.7305C456.247 35.7305 452.823 35.5892 451.489 35.4278C450.418 35.2583 449.423 34.9476 448.525 34.4997C447.715 34.0921 447.026 33.5594 446.43 32.8694C445.959 32.3246 445.613 31.5498 445.399 30.5611C445.335 30.1697 445.294 29.7823 445.282 29.4111C445.266 28.8542 445.258 28.2892 445.258 27.7323V26.4975C445.258 24.4193 445.75 22.8697 446.761 21.764C447.844 20.5776 449.431 19.827 451.614 19.4719C452.19 19.3872 452.774 19.3307 453.342 19.3024C454.144 19.2742 457.483 19.254 458.696 19.254M458.696 15.1661C457.979 15.1661 453.894 15.1823 453.161 15.2186C452.428 15.2549 451.703 15.3276 450.99 15.4325C447.88 15.9329 445.468 17.1233 443.752 19.0038C442.036 20.8843 441.178 23.3822 441.178 26.4975V27.7323C441.178 28.3417 441.186 28.943 441.206 29.5321C441.226 30.1213 441.287 30.7226 441.395 31.3319C441.754 33.051 442.406 34.4553 443.353 35.5489C444.299 36.6425 445.419 37.5101 446.704 38.1557C447.989 38.8014 449.387 39.2372 450.885 39.4713C452.388 39.7053 457.254 39.8224 458.752 39.8224C459.465 39.8224 460.166 39.8022 460.842 39.7699C461.519 39.7336 462.2 39.6609 462.881 39.556C465.132 39.1605 467.074 38.2486 468.701 36.816C470.328 35.3834 471.356 33.5029 471.783 31.1745C471.891 30.6015 471.952 30.0285 471.972 29.4554C471.988 28.8824 472 28.3094 472 27.7364C472 27.127 471.992 26.5258 471.972 25.9366C471.952 25.3474 471.891 24.7623 471.783 24.1893C471.388 21.7882 470.389 19.8391 468.778 18.3339C467.17 16.8287 465.221 15.8643 462.933 15.4325C462.216 15.2872 461.511 15.2065 460.814 15.1904C460.117 15.1702 459.413 15.1621 458.696 15.1621V15.1661Z" fill="#0C0C0C"/>
<path d="M175.55 19.2459C176.247 19.2459 176.923 19.254 177.564 19.2701C178.023 19.2822 178.502 19.3387 178.986 19.4356H179.01L179.034 19.4437C180.561 19.7302 181.805 20.3435 182.849 21.3161C183.787 22.1958 184.363 23.3499 184.609 24.847L184.617 24.8914L184.625 24.9358C184.693 25.295 184.734 25.6703 184.746 26.0496C184.762 26.6065 184.77 27.1714 184.77 27.7283C184.77 28.2489 184.762 28.7856 184.746 29.3142C184.734 29.6814 184.693 30.0486 184.625 30.4239C184.363 31.8565 183.799 32.9097 182.861 33.737C181.805 34.6651 180.561 35.2462 179.066 35.5166C178.543 35.5973 178.011 35.6538 177.491 35.682C176.875 35.7143 176.243 35.7305 175.61 35.7305C173.105 35.7305 169.681 35.5892 168.348 35.4278C167.276 35.2583 166.281 34.9476 165.383 34.4997C164.574 34.0921 163.885 33.5594 163.289 32.8694C162.817 32.3246 162.471 31.5498 162.257 30.5611C162.193 30.1697 162.153 29.7823 162.141 29.4111C162.125 28.8542 162.116 28.2892 162.116 27.7323V26.4975C162.116 24.4193 162.608 22.8697 163.619 21.764C164.702 20.5776 166.29 19.827 168.473 19.4719C169.049 19.3872 169.633 19.3307 170.201 19.3024C171.002 19.2742 174.341 19.254 175.554 19.254M175.554 15.1661C174.837 15.1661 170.753 15.1823 170.019 15.2186C169.286 15.2549 168.561 15.3276 167.848 15.4325C164.739 15.9329 162.326 17.1233 160.61 19.0038C158.894 20.8843 158.036 23.3822 158.036 26.4975V27.7323C158.036 28.3417 158.044 28.943 158.064 29.5321C158.084 30.1213 158.145 30.7226 158.254 31.3319C158.612 33.051 159.265 34.4553 160.211 35.5489C161.158 36.6425 162.278 37.5101 163.563 38.1557C164.847 38.8014 166.245 39.2372 167.744 39.4713C169.246 39.7053 174.112 39.8224 175.61 39.8224C176.323 39.8224 177.024 39.8022 177.701 39.7699C178.378 39.7336 179.058 39.6609 179.739 39.556C181.991 39.1605 183.932 38.2486 185.559 36.816C187.187 35.3834 188.214 33.5029 188.641 31.1745C188.75 30.6015 188.81 30.0285 188.83 29.4554C188.846 28.8824 188.858 28.3094 188.858 27.7364C188.858 27.127 188.85 26.5258 188.83 25.9366C188.81 25.3474 188.75 24.7623 188.641 24.1893C188.246 21.7882 187.247 19.8391 185.636 18.3339C184.029 16.8287 182.079 15.8643 179.791 15.4325C179.074 15.2872 178.37 15.2065 177.673 15.1904C176.976 15.1702 176.271 15.1621 175.554 15.1621V15.1661Z" fill="#0C0C0C"/>
<path d="M136.368 51.6377L127.691 67.5397H129.244L137.92 51.6377H136.368Z" fill="#0C0C0C"/>
<path d="M147.874 54.526C147.043 54.1096 146.036 53.9014 144.859 53.9014C143.77 53.9014 142.784 54.0851 141.908 54.4484C141.032 54.8159 140.278 55.3221 139.65 55.9754C139.023 56.6286 138.538 57.3839 138.2 58.2453C137.861 59.1068 137.694 60.0254 137.694 61.0052C137.694 61.9851 137.91 62.8628 138.342 63.6141C138.774 64.3612 139.406 64.945 140.237 65.3614C141.069 65.7779 142.067 65.9861 143.237 65.9861C144.325 65.9861 145.311 65.8024 146.195 65.439C147.075 65.0716 147.833 64.5653 148.461 63.9121C149.089 63.2589 149.574 62.5036 149.912 61.6421C150.25 60.7807 150.417 59.8621 150.417 58.8822C150.417 57.9024 150.201 57.0246 149.769 56.2734C149.337 55.5263 148.706 54.9424 147.874 54.526ZM148.347 61.091C148.098 61.7564 147.748 62.3443 147.287 62.8547C146.827 63.365 146.264 63.7651 145.604 64.0509C144.94 64.3367 144.207 64.4837 143.396 64.4837C142.519 64.4837 141.786 64.3326 141.195 64.0264C140.604 63.7202 140.156 63.3038 139.846 62.7689C139.536 62.2341 139.381 61.6135 139.381 60.9032C139.381 60.1928 139.504 59.4579 139.752 58.7924C140.001 58.1269 140.355 57.539 140.824 57.0287C141.289 56.5184 141.851 56.1183 142.507 55.8325C143.163 55.5467 143.901 55.3997 144.724 55.3997C145.588 55.3997 146.317 55.5508 146.917 55.857C147.512 56.1591 147.96 56.5796 148.265 57.1144C148.571 57.6493 148.722 58.2698 148.722 58.9802C148.722 59.6906 148.6 60.4255 148.351 61.091H148.347Z" fill="#0C0C0C"/>
<path d="M160.717 61.6482C160.525 62.6035 160.142 63.318 159.572 63.7916C158.997 64.2652 158.292 64.502 157.449 64.502C156.605 64.502 156.059 64.2734 155.737 63.8202C155.415 63.3629 155.334 62.7383 155.493 61.9381L156.487 56.9082H154.869L153.875 61.9217C153.708 62.7791 153.728 63.5058 153.944 64.106C154.156 64.7061 154.527 65.1675 155.048 65.4818C155.57 65.7962 156.214 65.9554 156.976 65.9554C157.738 65.9554 158.484 65.7962 159.14 65.4737C159.535 65.2818 159.877 65.0164 160.183 64.698L159.955 65.8534H161.503L163.272 56.9082H161.654L160.709 61.6523L160.717 61.6482Z" fill="#0C0C0C"/>
<path d="M170.284 54.9494H168.666L168.275 56.9091H166.747L166.494 58.2441H168.01L167.052 63.0372C166.938 63.6333 166.967 64.1518 167.13 64.5886C167.293 65.0295 167.57 65.3643 167.957 65.6011C168.344 65.8379 168.809 65.9563 169.347 65.9563C169.693 65.9563 170.052 65.9155 170.419 65.8379C170.781 65.7603 171.12 65.6134 171.421 65.397L171.083 64.164C170.904 64.2987 170.7 64.4049 170.476 64.4743C170.251 64.5478 170.027 64.5845 169.803 64.5845C169.318 64.5845 168.992 64.4416 168.817 64.1558C168.642 63.87 168.593 63.4822 168.674 63.0004L169.632 58.24H172.195L172.464 56.905H169.897L170.292 54.9453L170.284 54.9494Z" fill="#0C0C0C"/>
<path d="M177.479 58.5862C177.862 58.333 178.428 58.2065 179.182 58.2065C179.643 58.2065 180.103 58.2595 180.564 58.3657C181.024 58.4718 181.44 58.6556 181.811 58.9128L182.451 57.6308C182.092 57.3736 181.628 57.1736 181.061 57.0307C180.495 56.8918 179.916 56.8184 179.333 56.8184C178.526 56.8184 177.817 56.9368 177.21 57.1736C176.603 57.4103 176.13 57.7451 175.796 58.1779C175.458 58.6107 175.291 59.1251 175.291 59.7211C175.291 60.2151 175.413 60.6112 175.653 60.9092C175.894 61.2072 176.199 61.4359 176.57 61.591C176.941 61.7502 177.34 61.8686 177.768 61.9544C178.196 62.0401 178.596 62.1218 178.975 62.2075C179.349 62.2932 179.655 62.4075 179.891 62.5627C180.128 62.7137 180.246 62.9383 180.246 63.2282C180.246 63.6324 180.05 63.9549 179.655 64.1917C179.26 64.4285 178.677 64.5469 177.903 64.5469C177.296 64.5469 176.717 64.4611 176.159 64.2937C175.604 64.1264 175.152 63.9059 174.802 63.6364L174.076 64.9184C174.435 65.2123 174.948 65.4573 175.617 65.6533C176.285 65.8492 176.994 65.9472 177.748 65.9472C178.555 65.9472 179.268 65.8329 179.887 65.6084C180.507 65.3838 180.984 65.0531 181.326 64.6204C181.668 64.1876 181.839 63.6609 181.839 63.0404C181.839 62.5464 181.721 62.1544 181.485 61.8686C181.249 61.5828 180.943 61.3624 180.568 61.2113C180.193 61.0603 179.794 60.9419 179.37 60.8561C178.95 60.7704 178.551 60.6847 178.172 60.5948C177.797 60.505 177.487 60.3785 177.255 60.2151C177.023 60.0518 176.9 59.8232 176.9 59.5333C176.9 59.1496 177.092 58.8311 177.475 58.578L177.479 58.5862Z" fill="#0C0C0C"/>
<path d="M192.493 57.2919C191.866 56.9776 191.128 56.8184 190.285 56.8184C189.274 56.8184 188.373 57.047 187.579 57.5002C186.788 57.9574 186.165 58.5821 185.716 59.3741C185.268 60.1662 185.044 61.0725 185.044 62.085C185.044 62.8607 185.219 63.5384 185.566 64.1182C185.912 64.6979 186.401 65.147 187.024 65.4696C187.648 65.7921 188.386 65.9513 189.241 65.9513C190.264 65.9513 191.165 65.7227 191.947 65.2573C192.73 64.7959 193.341 64.1672 193.793 63.3751C194.242 62.5831 194.466 61.6767 194.466 60.6642C194.466 59.8763 194.295 59.1945 193.952 58.6229C193.61 58.0472 193.125 57.6063 192.493 57.2879V57.2919ZM192.383 62.7015C192.086 63.269 191.674 63.7181 191.145 64.0447C190.615 64.3713 190.016 64.5346 189.343 64.5346C188.487 64.5346 187.831 64.3101 187.371 63.861C186.91 63.4119 186.682 62.7995 186.682 62.0197C186.682 61.2399 186.833 60.6234 187.139 60.0518C187.44 59.4843 187.856 59.0393 188.386 58.7168C188.915 58.3943 189.51 58.235 190.171 58.235C191.022 58.235 191.682 58.4555 192.143 58.9005C192.603 59.3455 192.836 59.962 192.836 60.75C192.836 61.4808 192.685 62.1299 192.387 62.7015H192.383Z" fill="#0C0C0C"/>
<path d="M204.98 61.6482C204.788 62.6035 204.405 63.318 203.834 63.7916C203.26 64.2652 202.555 64.502 201.711 64.502C200.868 64.502 200.322 64.2734 200 63.8202C199.678 63.3629 199.596 62.7383 199.755 61.9381L200.75 56.9082H199.132L198.137 61.9217C197.97 62.7791 197.991 63.5058 198.207 64.106C198.419 64.7061 198.789 65.1675 199.311 65.4818C199.833 65.7962 200.477 65.9554 201.239 65.9554C202.001 65.9554 202.746 65.7962 203.403 65.4737C203.794 65.2818 204.14 65.0164 204.446 64.698L204.218 65.8534H205.766L207.535 56.9082H205.917L204.971 61.6523L204.98 61.6482Z" fill="#0C0C0C"/>
<path d="M213.593 58.2434L213.853 56.9043H212.305L210.536 65.8494H212.154L213.046 61.3748C213.25 60.3419 213.637 59.5784 214.216 59.0967C214.795 58.6149 215.528 58.37 216.417 58.37H216.637C216.706 58.37 216.771 58.374 216.84 58.3863L217.142 56.8145C216.197 56.8145 215.406 56.9655 214.766 57.2717C214.322 57.484 213.931 57.8106 213.597 58.2393L213.593 58.2434Z" fill="#0C0C0C"/>
<path d="M222.247 58.7197C222.777 58.3972 223.376 58.238 224.048 58.238C224.623 58.238 225.112 58.3441 225.523 58.5523C225.935 58.7606 226.249 59.0831 226.477 59.524L227.842 58.7646C227.496 58.1114 227.011 57.6256 226.391 57.303C225.772 56.9805 225.03 56.8213 224.166 56.8213C223.156 56.8213 222.251 57.0499 221.452 57.5031C220.653 57.9604 220.03 58.585 219.582 59.377C219.133 60.1691 218.909 61.0754 218.909 62.0879C218.909 62.8637 219.084 63.5414 219.431 64.1211C219.777 64.7009 220.27 65.15 220.906 65.4725C221.542 65.795 222.292 65.9542 223.156 65.9542C223.962 65.9542 224.716 65.7909 225.413 65.4643C226.11 65.1377 226.66 64.6886 227.064 64.113L225.886 63.2678C225.572 63.6843 225.181 63.9986 224.716 64.215C224.252 64.4273 223.755 64.5375 223.225 64.5375C222.373 64.5375 221.713 64.313 221.244 63.8639C220.78 63.4148 220.543 62.8024 220.543 62.0226C220.543 61.2428 220.694 60.6263 221 60.0548C221.301 59.4873 221.717 59.0423 222.247 58.7197Z" fill="#0C0C0C"/>
<path d="M238.616 58.6107C238.285 58.035 237.821 57.5941 237.226 57.2838C236.631 56.9735 235.93 56.8184 235.119 56.8184C234.153 56.8184 233.289 57.047 232.531 57.5002C231.773 57.9574 231.174 58.578 230.738 59.366C230.298 60.1539 230.082 61.0521 230.082 62.0646C230.082 62.8526 230.257 63.5344 230.604 64.1141C230.95 64.6938 231.447 65.1429 232.087 65.4655C232.727 65.788 233.485 65.9472 234.361 65.9472C235.046 65.9472 235.71 65.837 236.35 65.6165C236.99 65.3961 237.523 65.0776 237.951 64.6612L237.263 63.4976C236.949 63.812 236.549 64.0651 236.064 64.2488C235.579 64.4326 235.058 64.5265 234.5 64.5265C233.546 64.5265 232.833 64.306 232.368 63.861C231.904 63.416 231.667 62.7872 231.667 61.9789C231.667 61.9421 231.671 61.9135 231.671 61.8768H238.995C239.027 61.6972 239.056 61.5012 239.08 61.293C239.1 61.0848 239.113 60.8806 239.113 60.6765C239.113 59.8681 238.946 59.1741 238.616 58.5984V58.6107ZM232.087 59.9865C232.368 59.419 232.764 58.974 233.273 58.6515C233.782 58.3289 234.377 58.1697 235.05 58.1697C235.624 58.1697 236.113 58.284 236.525 58.5168C236.937 58.7495 237.234 59.0802 237.426 59.5129C237.572 59.8477 237.629 60.2478 237.605 60.701H231.826C231.891 60.4479 231.977 60.207 232.087 59.9824V59.9865Z" fill="#0C0C0C"/>
<path d="M253.634 57.9149C253.634 57.9149 253.625 57.8985 253.621 57.8945C253.328 57.3719 252.912 56.9759 252.374 56.7064C251.836 56.4369 251.176 56.3022 250.402 56.3022C249.685 56.3022 249.016 56.4329 248.397 56.6901C247.777 56.9473 247.244 57.3147 246.787 57.7883C246.331 58.2619 245.98 58.8171 245.728 59.4581C245.475 60.0991 245.349 60.8013 245.349 61.5689C245.349 62.3772 245.52 63.0713 245.862 63.6469C246.204 64.2185 246.673 64.6635 247.268 64.9697C247.863 65.28 248.535 65.4352 249.289 65.4352C250.043 65.4352 250.691 65.3004 251.278 65.031C251.714 64.8309 252.101 64.5656 252.448 64.2389L252.224 65.3372H253.772L256.266 52.8115H254.648L253.629 57.923L253.634 57.9149ZM251.449 63.5204C250.919 63.847 250.32 64.0103 249.648 64.0103C248.796 64.0103 248.136 63.7858 247.676 63.3367C247.215 62.8876 246.987 62.2752 246.987 61.4954C246.987 60.7156 247.138 60.0991 247.443 59.5275C247.745 58.96 248.161 58.515 248.69 58.1925C249.22 57.87 249.815 57.7107 250.475 57.7107C251.327 57.7107 251.987 57.9312 252.448 58.3762C252.908 58.8212 253.14 59.4377 253.14 60.2257C253.14 60.9565 252.99 61.6056 252.692 62.1772C252.395 62.7447 251.983 63.1938 251.453 63.5204H251.449Z" fill="#0C0C0C"/>
<path d="M265.674 56.7633C265.079 56.453 264.378 56.2979 263.567 56.2979C262.601 56.2979 261.737 56.5265 260.979 56.9797C260.221 57.4369 259.622 58.0575 259.186 58.8454C258.746 59.6334 258.53 60.5316 258.53 61.5482C258.53 62.3361 258.706 63.0179 259.052 63.5977C259.398 64.1774 259.895 64.6265 260.535 64.949C261.175 65.2716 261.933 65.4308 262.809 65.4308C263.494 65.4308 264.158 65.3206 264.798 65.1001C265.438 64.8796 265.972 64.5612 266.4 64.1448L265.711 62.9812C265.397 63.2956 264.998 63.5446 264.513 63.7324C264.028 63.9161 263.506 64.01 262.948 64.01C261.994 64.01 261.281 63.7896 260.816 63.3446C260.352 62.8995 260.116 62.2749 260.116 61.4624C260.116 61.4257 260.12 61.3971 260.12 61.3604H267.443C267.475 61.1807 267.504 60.9848 267.528 60.7766C267.549 60.5683 267.561 60.3642 267.561 60.1601C267.561 59.3517 267.394 58.6576 267.064 58.0861C266.734 57.5104 266.269 57.0695 265.674 56.7592V56.7633ZM260.535 59.466C260.816 58.8985 261.212 58.4535 261.721 58.131C262.231 57.8084 262.826 57.6492 263.498 57.6492C264.073 57.6492 264.562 57.7635 264.973 57.9962C265.385 58.2249 265.682 58.5597 265.874 58.9924C266.021 59.3272 266.082 59.7273 266.053 60.1805H260.274C260.34 59.9274 260.425 59.6865 260.535 59.4619V59.466Z" fill="#0C0C0C"/>
<path d="M273.84 63.552L272.174 56.3828H270.556L272.695 65.328H274.346L280.022 56.3828H278.388L273.84 63.552Z" fill="#0C0C0C"/>
<path d="M288.328 56.7633C287.733 56.453 287.033 56.2979 286.222 56.2979C285.256 56.2979 284.392 56.5265 283.634 56.9797C282.876 57.4369 282.277 58.0575 281.841 58.8454C281.401 59.6334 281.185 60.5316 281.185 61.5482C281.185 62.3361 281.36 63.0179 281.706 63.5977C282.053 64.1774 282.55 64.6265 283.19 64.949C283.829 65.2716 284.587 65.4308 285.464 65.4308C286.148 65.4308 286.812 65.3206 287.452 65.1001C288.092 64.8796 288.626 64.5612 289.054 64.1448L288.361 62.9812C288.047 63.2956 287.648 63.5446 287.163 63.7324C286.678 63.9161 286.156 64.01 285.598 64.01C284.644 64.01 283.931 63.7896 283.467 63.3446C283.002 62.8995 282.766 62.2749 282.766 61.4624C282.766 61.4257 282.77 61.3971 282.77 61.3604H290.093C290.126 61.1807 290.154 60.9848 290.179 60.7766C290.199 60.5683 290.211 60.3642 290.211 60.1601C290.211 59.3517 290.044 58.6576 289.714 58.0861C289.384 57.5104 288.919 57.0695 288.324 56.7592L288.328 56.7633ZM283.19 59.466C283.471 58.8985 283.866 58.4535 284.375 58.131C284.885 57.8084 285.48 57.6492 286.152 57.6492C286.727 57.6492 287.216 57.7635 287.627 57.9962C288.039 58.2249 288.337 58.5597 288.528 58.9924C288.675 59.3272 288.732 59.7273 288.707 60.1805H282.929C282.994 59.9274 283.08 59.6865 283.19 59.4619V59.466Z" fill="#0C0C0C"/>
<path d="M293.184 65.3284H294.801L297.295 52.8027H295.678L293.184 65.3284Z" fill="#0C0C0C"/>
<path d="M306.995 56.7714C306.368 56.4571 305.63 56.2979 304.787 56.2979C303.776 56.2979 302.875 56.5265 302.081 56.9797C301.29 57.4369 300.667 58.0616 300.218 58.8536C299.77 59.6457 299.546 60.552 299.546 61.5645C299.546 62.3402 299.721 63.0179 300.068 63.5977C300.414 64.1774 300.903 64.6265 301.526 64.949C302.15 65.2716 302.888 65.4308 303.743 65.4308C304.766 65.4308 305.667 65.1981 306.449 64.7367C307.232 64.2754 307.847 63.6467 308.295 62.8546C308.744 62.0626 308.968 61.1562 308.968 60.1437C308.968 59.3558 308.797 58.674 308.454 58.1024C308.112 57.5308 307.627 57.0858 306.995 56.7674V56.7714ZM306.885 62.181C306.588 62.7485 306.176 63.1976 305.646 63.5242C305.117 63.8508 304.518 64.0141 303.845 64.0141C302.989 64.0141 302.333 63.7896 301.873 63.3405C301.412 62.8914 301.18 62.279 301.18 61.4992C301.18 60.7194 301.331 60.1029 301.636 59.5313C301.938 58.9638 302.354 58.5188 302.883 58.1963C303.413 57.8738 304.008 57.7145 304.668 57.7145C305.52 57.7145 306.18 57.935 306.641 58.38C307.101 58.825 307.334 59.4415 307.334 60.2295C307.334 60.9603 307.183 61.6094 306.885 62.181Z" fill="#0C0C0C"/>
<path d="M320.232 56.7551C319.641 56.453 318.964 56.2979 318.202 56.2979C317.212 56.2979 316.364 56.5346 315.651 57.0082C315.431 57.1552 315.231 57.3226 315.044 57.5063L315.272 56.3877H313.724L311.299 68.6071H312.917L313.866 63.8018C313.866 63.8018 313.87 63.8141 313.874 63.8222C314.168 64.3448 314.583 64.7449 315.13 65.0185C315.676 65.2961 316.328 65.4308 317.094 65.4308C317.811 65.4308 318.479 65.3002 319.099 65.0348C319.718 64.7694 320.252 64.402 320.709 63.9284C321.165 63.4548 321.515 62.8995 321.768 62.2586C322.021 61.6176 322.147 60.9154 322.147 60.1478C322.147 59.3803 321.976 58.6617 321.634 58.082C321.291 57.5022 320.827 57.0613 320.236 56.7551H320.232ZM320.056 62.181C319.755 62.7485 319.339 63.1976 318.818 63.5242C318.296 63.8508 317.697 64.0141 317.025 64.0141C316.169 64.0141 315.513 63.7896 315.052 63.3405C314.592 62.8914 314.363 62.279 314.363 61.4992C314.363 60.7194 314.51 60.1029 314.812 59.5313C315.109 58.9638 315.525 58.5188 316.059 58.1963C316.593 57.8738 317.192 57.7145 317.852 57.7145C318.703 57.7145 319.364 57.935 319.824 58.38C320.285 58.825 320.517 59.4415 320.517 60.2295C320.517 60.9603 320.366 61.6094 320.061 62.181H320.056Z" fill="#0C0C0C"/>
<path d="M332.256 56.7633C331.661 56.453 330.96 56.2979 330.149 56.2979C329.183 56.2979 328.32 56.5265 327.562 56.9797C326.804 57.4369 326.204 58.0575 325.768 58.8454C325.328 59.6334 325.112 60.5316 325.112 61.5482C325.112 62.3361 325.288 63.0179 325.634 63.5977C325.98 64.1774 326.478 64.6265 327.117 64.949C327.757 65.2716 328.515 65.4308 329.391 65.4308C330.076 65.4308 330.74 65.3206 331.38 65.1001C332.02 64.8796 332.554 64.5612 332.982 64.1448L332.293 62.9812C331.979 63.2956 331.58 63.5446 331.095 63.7324C330.61 63.9161 330.088 64.01 329.526 64.01C328.572 64.01 327.859 63.7896 327.394 63.3446C326.93 62.8995 326.693 62.2749 326.693 61.4624C326.693 61.4257 326.698 61.3971 326.698 61.3604H334.021C334.053 61.1807 334.082 60.9848 334.106 60.7766C334.127 60.5683 334.139 60.3642 334.139 60.1601C334.139 59.3517 333.972 58.6576 333.642 58.0861C333.312 57.5104 332.847 57.0695 332.252 56.7592L332.256 56.7633ZM327.117 59.466C327.399 58.8985 327.794 58.4535 328.303 58.131C328.813 57.8084 329.408 57.6492 330.08 57.6492C330.655 57.6492 331.144 57.7635 331.555 57.9962C331.967 58.2249 332.264 58.5597 332.456 58.9924C332.603 59.3272 332.664 59.7273 332.635 60.1805H326.856C326.922 59.9274 327.007 59.6865 327.117 59.4619V59.466Z" fill="#0C0C0C"/>
<path d="M340.165 57.7229L340.426 56.3838H338.877L337.108 65.3289H338.726L339.619 60.8543C339.822 59.8214 340.21 59.0579 340.788 58.5762C341.367 58.0944 342.101 57.8494 342.989 57.8494H343.209C343.278 57.8494 343.343 57.8535 343.413 57.8658L343.714 56.2939C342.769 56.2939 341.978 56.445 341.338 56.7512C340.894 56.9635 340.503 57.2901 340.169 57.7188L340.165 57.7229Z" fill="#0C0C0C"/>
<path d="M348.229 58.0617C348.612 57.8086 349.179 57.6821 349.932 57.6821C350.393 57.6821 350.853 57.7351 351.314 57.8413C351.774 57.9474 352.19 58.1312 352.561 58.3884L353.201 57.1064C352.842 56.8492 352.378 56.6491 351.811 56.5062C351.245 56.3674 350.666 56.2939 350.083 56.2939C349.276 56.2939 348.567 56.4123 347.96 56.6491C347.353 56.8859 346.88 57.2207 346.546 57.6535C346.208 58.0862 346.041 58.6007 346.041 59.1967C346.041 59.6907 346.163 60.0868 346.403 60.3848C346.644 60.6828 346.949 60.9115 347.32 61.0666C347.691 61.2258 348.09 61.3442 348.518 61.43C348.946 61.5157 349.346 61.5973 349.725 61.6831C350.1 61.7688 350.405 61.8831 350.642 62.0383C350.878 62.1893 350.996 62.4139 350.996 62.7037C350.996 63.1079 350.8 63.4305 350.405 63.6673C350.01 63.9041 349.427 64.0225 348.653 64.0225C348.046 64.0225 347.467 63.9367 346.909 63.7693C346.354 63.6019 345.902 63.3815 345.552 63.112L344.826 64.394C345.185 64.6879 345.698 64.9329 346.367 65.1289C347.035 65.3248 347.744 65.4228 348.498 65.4228C349.305 65.4228 350.018 65.3085 350.637 65.084C351.257 64.8594 351.734 64.5287 352.076 64.0959C352.418 63.6632 352.589 63.1365 352.589 62.516C352.589 62.0219 352.471 61.63 352.235 61.3442C351.999 61.0584 351.693 60.838 351.318 60.6869C350.943 60.5358 350.544 60.4175 350.12 60.3317C349.7 60.246 349.301 60.1602 348.922 60.0704C348.547 59.9806 348.241 59.854 348.005 59.6907C347.768 59.5274 347.65 59.2988 347.65 59.0089C347.65 58.6252 347.842 58.3067 348.225 58.0536L348.229 58.0617Z" fill="#0C0C0C"/>
<path d="M139.636 70.2814H138.018L137.627 72.2411H136.098L135.846 73.5761H137.362L136.404 78.3692C136.29 78.9653 136.318 79.4838 136.481 79.9206C136.644 80.3616 136.922 80.6963 137.309 80.9331C137.696 81.1699 138.16 81.2883 138.698 81.2883C139.045 81.2883 139.403 81.2475 139.77 81.1699C140.133 81.0924 140.471 80.9454 140.773 80.729L140.434 79.496C140.255 79.6308 140.051 79.7369 139.827 79.8063C139.603 79.8798 139.379 79.9165 139.155 79.9165C138.67 79.9165 138.344 79.7737 138.169 79.4879C137.993 79.2021 137.944 78.8142 138.026 78.3325L138.984 73.5721H141.547L141.816 72.237H139.248L139.644 70.2773L139.636 70.2814Z" fill="#0C0C0C"/>
<path d="M151.117 72.6187C150.522 72.3085 149.821 72.1533 149.01 72.1533C148.044 72.1533 147.18 72.3819 146.422 72.8351C145.664 73.2924 145.065 73.913 144.629 74.7009C144.189 75.4889 143.973 76.3871 143.973 77.4036C143.973 78.1916 144.148 78.8734 144.494 79.4532C144.841 80.0329 145.338 80.482 145.978 80.8045C146.617 81.127 147.375 81.2863 148.252 81.2863C148.936 81.2863 149.601 81.176 150.24 80.9556C150.88 80.7351 151.414 80.4167 151.842 80.0002L151.149 78.8367C150.835 79.151 150.436 79.4001 149.951 79.5879C149.466 79.7716 148.944 79.8655 148.382 79.8655C147.428 79.8655 146.715 79.645 146.251 79.2C145.786 78.755 145.55 78.1304 145.55 77.3179C145.55 77.2812 145.554 77.2526 145.554 77.2158H152.877C152.91 77.0362 152.938 76.8402 152.963 76.632C152.983 76.4238 152.995 76.2197 152.995 76.0155C152.995 75.2072 152.828 74.5131 152.498 73.9415C152.168 73.3659 151.703 72.9249 151.108 72.6147L151.117 72.6187ZM145.978 75.3215C146.259 74.754 146.654 74.309 147.164 73.9864C147.673 73.6639 148.268 73.5047 148.94 73.5047C149.515 73.5047 150.004 73.619 150.416 73.8517C150.827 74.0803 151.125 74.4151 151.316 74.8479C151.463 75.1827 151.52 75.5828 151.496 76.036H145.717C145.782 75.7828 145.868 75.5419 145.974 75.3174L145.978 75.3215Z" fill="#0C0C0C"/>
<path d="M164.227 73.7619C164.227 73.7619 164.223 73.7497 164.219 73.7456C163.926 73.223 163.51 72.827 162.972 72.5575C162.434 72.2881 161.774 72.1533 161 72.1533C160.282 72.1533 159.614 72.284 158.995 72.5412C158.375 72.7984 157.841 73.1658 157.385 73.6394C156.928 74.113 156.578 74.6683 156.325 75.3092C156.073 75.9502 155.946 76.6524 155.946 77.42C155.946 78.2283 156.117 78.9224 156.46 79.4981C156.802 80.0696 157.271 80.5147 157.866 80.8209C158.461 81.1311 159.133 81.2863 159.887 81.2863C160.877 81.2863 161.725 81.0495 162.438 80.5759C162.658 80.433 162.854 80.2615 163.041 80.0819L162.817 81.1842H164.366L166.134 72.2391H164.516L164.219 73.766L164.227 73.7619ZM162.047 79.3756C161.517 79.7022 160.918 79.8655 160.246 79.8655C159.394 79.8655 158.734 79.641 158.273 79.1919C157.813 78.7428 157.58 78.1304 157.58 77.3506C157.58 76.5708 157.731 75.9543 158.037 75.3827C158.338 74.8152 158.754 74.3702 159.284 74.0477C159.814 73.7252 160.409 73.5659 161.069 73.5659C161.921 73.5659 162.581 73.7864 163.041 74.2314C163.502 74.6764 163.73 75.2929 163.73 76.0809C163.73 76.8117 163.579 77.4608 163.282 78.0324C162.984 78.5999 162.573 79.049 162.043 79.3756H162.047Z" fill="#0C0C0C"/>
<path d="M184.898 74.0028C184.69 73.4026 184.327 72.9413 183.81 72.6269C183.292 72.3125 182.636 72.1533 181.837 72.1533C180.904 72.1533 180.077 72.3575 179.351 72.7698C178.915 73.0148 178.532 73.3495 178.194 73.7496C178.133 73.6149 178.068 73.4802 177.986 73.3618C177.721 72.9617 177.367 72.6596 176.915 72.4595C176.466 72.2554 175.936 72.1533 175.329 72.1533C174.555 72.1533 173.85 72.3125 173.214 72.6269C172.847 72.8106 172.521 73.0597 172.228 73.3618L172.448 72.2391H170.9L169.131 81.1842H170.749L171.694 76.4565C171.886 75.4889 172.248 74.7703 172.79 74.3049C173.328 73.8395 174.009 73.6027 174.828 73.6027C175.647 73.6027 176.197 73.8272 176.503 74.2763C176.813 74.7254 176.886 75.3582 176.731 76.1666L175.72 81.1801H177.338L178.3 76.4034C178.492 75.4562 178.854 74.754 179.396 74.2926C179.934 73.8313 180.615 73.5986 181.434 73.5986C182.253 73.5986 182.803 73.8231 183.109 74.2722C183.419 74.7213 183.488 75.3541 183.321 76.1625L182.326 81.176H183.944L184.939 76.1625C185.118 75.3174 185.106 74.5948 184.898 73.9946V74.0028Z" fill="#0C0C0C"/>
</svg>
