<svg width="140" height="19" viewBox="0 0 140 19" fill="none" xmlns="http://www.w3.org/2000/svg">
<g clip-path="url(#clip0_258_5622)">
<path d="M1.77997 9.43002L1.79963 10.0891C1.83894 10.8083 2.03711 11.357 2.3958 11.7367C2.75448 12.1164 3.30479 12.3054 4.04837 12.3054H6.33642C6.79337 12.3054 7.16516 12.2418 7.45178 12.1164C7.7384 11.9892 7.97097 11.8102 8.14622 11.5761C8.32146 11.3436 8.44266 11.0592 8.50818 10.7264C8.57369 10.3935 8.60645 10.0205 8.60645 9.60733C8.60645 9.12727 8.54093 8.7275 8.41154 8.40801C8.28052 8.08853 8.09217 7.83596 7.84486 7.64862C7.59754 7.46295 7.29455 7.33248 6.93586 7.25888C6.57718 7.18528 6.16936 7.14848 5.7124 7.14848H3.85347C3.3179 7.14848 2.82655 7.07154 2.37614 6.91933C1.92574 6.76711 1.54085 6.53963 1.22147 6.24022C0.902098 5.94081 0.65151 5.57114 0.468073 5.13123C0.284636 4.69131 0.194556 4.19285 0.194556 3.63251C0.194556 2.89987 0.305928 2.2977 0.527035 1.82434C0.748142 1.35097 1.0364 0.981304 1.38853 0.715347C1.74067 0.449391 2.13211 0.26205 2.56286 0.156671C2.99361 0.0496196 3.42436 -0.00390625 3.85347 -0.00390625H6.29875C7.36825 -0.00390625 8.2363 0.30554 8.90126 0.924433C9.56621 1.54333 9.89869 2.44657 9.89869 3.63251V3.81148C9.89869 3.86501 9.89214 3.92523 9.87904 3.99046H8.07907C8.07907 3.64421 8.05286 3.32808 8.00045 3.04205C7.94804 2.75602 7.85304 2.50679 7.71711 2.29269C7.57953 2.08026 7.39118 1.91633 7.15042 1.80259C6.90966 1.68885 6.60011 1.63198 6.22177 1.63198H4.24655C4.03854 1.63198 3.80597 1.64536 3.55211 1.67212C3.29824 1.69888 3.05584 1.77583 2.82819 1.90128C2.60053 2.0284 2.40726 2.22745 2.25167 2.5001C2.09444 2.77275 2.01746 3.1491 2.01746 3.62916C2.01746 4.38856 2.20253 4.88702 2.57432 5.12788C2.94611 5.36708 3.46366 5.48751 4.13026 5.48751H5.9892C6.65415 5.48751 7.26015 5.5678 7.80882 5.7267C8.35586 5.88728 8.82264 6.13317 9.20753 6.46603C9.59242 6.79889 9.89214 7.22543 10.1067 7.74396C10.3213 8.26416 10.4294 8.88306 10.4294 9.60231C10.4294 10.2547 10.3507 10.8485 10.1951 11.3804C10.0379 11.914 9.80042 12.3723 9.48105 12.7587C9.16167 13.1451 8.75385 13.4445 8.25759 13.6586C7.76133 13.871 7.17498 13.978 6.49692 13.978H4.05164C2.68242 13.978 1.66533 13.585 1.00037 12.7988C0.335409 12.0126 0.00292969 10.9471 0.00292969 9.60231V9.42166H1.77997V9.43002Z" fill="black"/>
<path d="M27.3288 10.7286V3.99609H29.0501V10.6885C29.0501 10.9277 29.0632 11.1552 29.0895 11.3676C29.1157 11.58 29.1779 11.7707 29.2745 11.9363C29.3728 12.1036 29.5153 12.2357 29.7053 12.3361C29.8936 12.4365 30.1524 12.4866 30.4783 12.4866H31.1433C31.574 12.4866 31.9065 12.3829 32.1407 12.1772C32.3749 11.9714 32.4994 11.6419 32.5125 11.1886L32.5322 10.7286H34.3125V3.99609H36.0338V13.9854H34.3125V10.9879H34.0193C33.9931 11.9062 33.7491 12.6455 33.2856 13.2059C32.8221 13.7646 32.1014 14.0456 31.1236 14.0456H30.3211C29.6692 14.0456 29.1468 13.9552 28.7553 13.7763C28.3639 13.5973 28.0609 13.3531 27.8463 13.047C27.6318 12.7409 27.4909 12.3879 27.4254 11.9882C27.3599 11.5884 27.3271 11.1686 27.3271 10.7286H27.3288Z" fill="black"/>
<path d="M38.3825 13.9653V3.99609H40.1039V6.99354H40.397C40.4232 6.06186 40.6312 5.32922 41.0227 4.79564C41.4141 4.26372 42.0922 3.99609 43.0569 3.99609H44.3278V5.53496H43.3893C42.88 5.53496 42.5147 5.63198 42.2936 5.82434C42.0725 6.01837 41.9415 6.34789 41.9022 6.81289L41.8825 7.25281H40.1022V13.9653H38.3809H38.3825Z" fill="black"/>
<path d="M45.4827 7.25281C45.64 6.39974 45.9888 5.69387 46.5293 5.13519C47.0698 4.57651 47.7708 4.22358 48.6323 4.07638C48.8665 4.03624 49.0925 4.01282 49.307 4.00613C49.5216 3.99944 49.7411 3.99609 49.9622 3.99609C50.1702 3.99609 50.3864 3.99944 50.6075 4.00613C50.8286 4.01282 51.0513 4.03624 51.2724 4.07638C52.0815 4.2102 52.7268 4.53972 53.21 5.06494C53.6932 5.59183 53.9601 6.23414 54.0125 6.99354V7.15412H52.3501C52.2715 6.66068 52.0635 6.27261 51.7245 5.98491C51.3855 5.69888 50.8957 5.55503 50.257 5.55503H49.5724C49.1547 5.55503 48.7895 5.62863 48.4767 5.77416C48.1638 5.92135 47.9067 6.12375 47.7036 6.38301C47.5005 6.64228 47.3515 6.95005 47.2532 7.30131C47.1549 7.65425 47.1058 8.0306 47.1058 8.43038V9.22992C47.1058 9.64307 47.1451 10.0529 47.2237 10.4593C47.3023 10.8658 47.4383 11.2254 47.6348 11.5382C47.8297 11.851 48.0885 12.1053 48.4079 12.2976C48.7273 12.4916 49.122 12.587 49.592 12.587H50.3356C50.7664 12.587 51.1185 12.5 51.392 12.3277C51.6655 12.1554 51.8817 11.9179 52.0373 11.6185C52.1945 11.3191 52.301 10.9729 52.36 10.5798C52.4189 10.1867 52.4484 9.77019 52.4484 9.33028H54.1305C54.1436 9.51762 54.1501 9.70663 54.1501 9.89899C54.1501 10.0913 54.137 10.282 54.1108 10.4677C54.0584 10.8942 53.9699 11.304 53.8471 11.6971C53.7226 12.0902 53.5474 12.4465 53.3181 12.766C53.0904 13.0854 52.812 13.3581 52.4861 13.5856C52.1601 13.8114 51.7687 13.972 51.3118 14.0656C51.089 14.1058 50.8679 14.1292 50.6468 14.1359C50.4257 14.1426 50.1833 14.1459 49.9229 14.1459H49.5314C49.3742 14.1459 49.2153 14.1426 49.0515 14.1359C48.8878 14.1292 48.7289 14.1058 48.5717 14.0656C48.1147 13.9854 47.7102 13.8331 47.358 13.6057C47.0059 13.3798 46.6996 13.1055 46.4392 12.786C46.1788 12.4666 45.9692 12.1069 45.8136 11.7072C45.6563 11.3074 45.5466 10.8875 45.4811 10.4493C45.4549 10.2636 45.4319 10.0261 45.4123 9.74008C45.3926 9.45406 45.3828 9.15465 45.3828 8.84018C45.3828 8.52572 45.3894 8.22798 45.4025 7.94028C45.4156 7.65425 45.4418 7.42342 45.4811 7.25113L45.4827 7.25281Z" fill="black"/>
<path d="M55.9699 7.25281C56.1271 6.39974 56.4613 5.69052 56.9772 5.12515C57.4931 4.55979 58.2006 4.20351 59.0998 4.05631C59.3078 4.02955 59.524 4.01282 59.7451 4.00613C59.9662 3.99944 60.189 3.99609 60.4101 3.99609H60.7622C61.3485 3.99609 61.8776 4.09311 62.346 4.28547C62.816 4.4795 63.2124 4.75215 63.54 5.10508C63.8659 5.45802 64.1132 5.88455 64.2835 6.38301C64.4522 6.88314 64.5374 7.43178 64.5374 8.0306V9.34868H57.5144V9.96757C57.5144 10.7403 57.7289 11.3659 58.1597 11.846C58.5904 12.3261 59.1768 12.5652 59.9203 12.5652H60.8392C61.152 12.5652 61.4222 12.5117 61.6515 12.4047C61.8792 12.2976 62.0757 12.1588 62.2379 11.9848C62.4017 11.8125 62.5278 11.6118 62.6195 11.386C62.7112 11.1602 62.7685 10.9193 62.7947 10.6668H64.4375C64.4244 11.0665 64.3523 11.4496 64.2229 11.8159C64.0919 12.1822 63.9134 12.5151 63.6857 12.8145C63.4581 13.1139 63.1796 13.3715 62.8537 13.5839C62.5278 13.798 62.156 13.9502 61.7383 14.0439C61.5287 14.084 61.3207 14.1075 61.1127 14.1142C60.9047 14.1208 60.6885 14.1242 60.4674 14.1242H60.017C58.882 14.1242 57.9697 13.8014 57.2785 13.1557C56.5874 12.51 56.1501 11.6068 55.9683 10.4493C55.929 10.1833 55.906 9.91404 55.8995 9.63972C55.8929 9.36708 55.8896 9.09778 55.8896 8.83015V8.04064C55.8896 7.78137 55.9159 7.51876 55.9683 7.25113L55.9699 7.25281ZM62.9143 7.95199C62.9012 7.61912 62.8553 7.30633 62.7767 7.01361C62.6981 6.72089 62.5769 6.46497 62.4148 6.24418C62.251 6.02506 62.0331 5.8511 61.7596 5.72398C61.4861 5.59685 61.1536 5.53496 60.7622 5.53496H59.8434C59.1391 5.53496 58.5741 5.71896 58.1515 6.0836C57.7273 6.44992 57.516 6.98016 57.516 7.67265V7.95199H62.9159H62.9143Z" fill="black"/>
<path d="M66.5908 13.9854V3.99609H68.3122V4.85585C68.5202 4.5899 68.7855 4.37914 69.1049 4.22692C69.4243 4.07471 69.8124 3.99777 70.2694 3.99777H71.3061C71.9449 3.99777 72.4706 4.09478 72.8817 4.28714C73.2928 4.48117 73.622 4.73709 73.8693 5.05657C74.1297 4.73709 74.4557 4.48117 74.8471 4.28714C75.2386 4.09478 75.7201 3.99777 76.295 3.99777H77.5266C78.1785 3.99777 78.7108 4.09813 79.1219 4.29718C79.5329 4.49623 79.8622 4.75716 80.1095 5.07665C80.3568 5.39613 80.5271 5.76245 80.6188 6.1756C80.7106 6.58875 80.7564 7.01529 80.7564 7.45353V13.987H79.0547V7.51207C79.0547 7.27288 79.0318 7.03536 78.9859 6.80285C78.9401 6.57035 78.8516 6.35959 78.7222 6.17393C78.5912 5.98826 78.4225 5.83772 78.2129 5.72397C78.0032 5.61023 77.7297 5.55336 77.3907 5.55336H76.3932C76.1721 5.55336 75.9494 5.57678 75.7283 5.62361C75.5055 5.67045 75.3074 5.76412 75.1321 5.90295C74.9552 6.04346 74.8127 6.23582 74.7014 6.4817C74.59 6.72758 74.5359 7.05041 74.5359 7.45018V13.9837H72.8342V7.51207C72.8342 7.27288 72.8113 7.03536 72.7654 6.80285C72.7196 6.57035 72.6311 6.35959 72.5018 6.17393C72.3707 5.98826 72.202 5.83772 71.9924 5.72397C71.7827 5.61023 71.5092 5.55336 71.1702 5.55336H70.1728C69.9517 5.55336 69.7289 5.57678 69.5078 5.62361C69.2867 5.67045 69.0869 5.76412 68.9116 5.90295C68.7364 6.04346 68.5922 6.23582 68.4809 6.4817C68.3695 6.72758 68.3138 7.05041 68.3138 7.45018V13.9837H66.5925L66.5908 13.9854Z" fill="black"/>
<path d="M86.2526 7.79141H89.8525V7.09223C89.8525 6.65231 89.7248 6.27931 89.4709 5.9732C89.2171 5.6671 88.8027 5.51322 88.2278 5.51322H86.4082C85.8726 5.51322 85.4795 5.61692 85.224 5.82266C84.9702 6.03008 84.8293 6.33283 84.8031 6.7326H83.18C83.18 6.34621 83.2357 5.98659 83.3454 5.65372C83.4568 5.32086 83.6321 5.03148 83.8745 4.78393C84.1152 4.53804 84.428 4.34401 84.8129 4.20518C85.1978 4.06467 85.6695 3.99609 86.2313 3.99609H88.5587C89.068 3.99609 89.5102 4.07304 89.8886 4.22525C90.2669 4.37914 90.5797 4.58822 90.827 4.85418C91.0744 5.12014 91.2611 5.43293 91.3839 5.79256C91.5084 6.15218 91.569 6.53857 91.569 6.95172L91.5493 13.9854H89.828V10.9879H89.5151C89.5151 11.4278 89.4496 11.841 89.3202 12.2274C89.1892 12.6138 89.0009 12.95 88.7536 13.236C88.5062 13.522 88.1983 13.7462 87.8347 13.9051C87.4695 14.0656 87.0387 14.1443 86.5441 14.1443H85.8792C84.8097 14.1443 84.0137 13.8448 83.4928 13.2444C82.9704 12.6455 82.71 11.8728 82.71 10.926C82.71 10.3941 82.7984 9.93077 82.9736 9.53769C83.1505 9.14461 83.3946 8.81844 83.7074 8.55917C84.0202 8.29991 84.392 8.10588 84.8228 7.98042C85.2535 7.8533 85.7285 7.79141 86.2509 7.79141H86.2526ZM84.374 10.8875C84.374 11.1401 84.3969 11.3776 84.4428 11.5968C84.4886 11.8159 84.5705 12.0066 84.6868 12.1655C84.8047 12.3261 84.9603 12.4515 85.1569 12.5452C85.3518 12.6388 85.6007 12.6857 85.9004 12.6857H86.4868C87.0076 12.6857 87.4023 12.5134 87.6709 12.1655C87.9379 11.8192 88.0722 11.3927 88.0722 10.8875V10.727H89.8329L89.8525 9.24832H86.4295C85.7645 9.24832 85.2552 9.3721 84.903 9.61798C84.5509 9.86386 84.374 10.2871 84.374 10.8859V10.8875Z" fill="black"/>
<path d="M93.9216 19.0002V4.01627H95.6429V7.01372H95.9361C95.9623 6.08203 96.2129 5.33936 96.6895 4.78571C97.1661 4.23372 97.8933 3.95605 98.8711 3.95605H99.8489C100.514 3.95605 101.043 4.08987 101.433 4.35583C101.824 4.62178 102.121 4.96134 102.322 5.37449C102.523 5.78764 102.658 6.24763 102.723 6.75278C102.789 7.2596 102.822 7.74468 102.822 8.21136V9.64987C102.822 11.0482 102.538 12.1238 101.97 12.8765C101.403 13.6292 100.479 14.0055 99.2019 14.0055H95.6413V19.0002H93.9199H93.9216ZM98.8907 12.4466C99.3608 12.4466 99.7391 12.3763 100.026 12.2375C100.312 12.097 100.535 11.908 100.691 11.6688C100.848 11.4296 100.954 11.1386 101.013 10.799C101.072 10.4594 101.102 10.0898 101.102 9.69001V8.59106C101.102 8.16452 101.095 7.76475 101.082 7.39174C101.069 7.01874 101.01 6.69256 100.905 6.41323C100.8 6.13389 100.628 5.91309 100.388 5.75419C100.147 5.59361 99.7981 5.51499 99.3411 5.51499H98.8514C98.4338 5.51499 98.098 5.6187 97.8442 5.82444C97.5903 6.03185 97.4494 6.36137 97.4232 6.813V7.27298H95.6429V12.4483H98.8907V12.4466Z" fill="black"/>
<path d="M104.975 12.0479H106.735V13.9664H104.975V12.0479Z" fill="black"/>
<path d="M109.181 19.0002V4.01627H110.903V7.01372H111.196C111.222 6.08203 111.473 5.33936 111.949 4.78571C112.426 4.23372 113.153 3.95605 114.131 3.95605H115.109C115.774 3.95605 116.303 4.08987 116.692 4.35583C117.084 4.62178 117.38 4.96134 117.582 5.37449C117.783 5.78764 117.918 6.24763 117.983 6.75278C118.049 7.2596 118.081 7.74468 118.081 8.21136V9.64987C118.081 11.0482 117.798 12.1238 117.23 12.8765C116.663 13.6292 115.739 14.0055 114.462 14.0055H110.901V19.0002H109.18H109.181ZM114.151 12.4466C114.621 12.4466 114.999 12.3763 115.286 12.2375C115.572 12.097 115.795 11.908 115.95 11.6688C116.106 11.4296 116.214 11.1386 116.273 10.799C116.332 10.4594 116.362 10.0898 116.362 9.69001V8.59106C116.362 8.16452 116.355 7.76475 116.342 7.39174C116.329 7.01874 116.27 6.69256 116.165 6.41323C116.06 6.13389 115.888 5.91309 115.647 5.75419C115.407 5.59361 115.058 5.51499 114.601 5.51499H114.111C113.694 5.51499 113.358 5.6187 113.104 5.82444C112.85 6.03185 112.709 6.36137 112.683 6.813V7.27298H110.903V12.4483H114.151V12.4466Z" fill="black"/>
<path d="M120.429 13.9653V3.99609H122.151V6.99354H122.444C122.47 6.06186 122.678 5.32922 123.07 4.79564C123.461 4.26372 124.139 3.99609 125.104 3.99609H126.375V5.53496H125.436C124.927 5.53496 124.562 5.63198 124.341 5.82434C124.118 6.01837 123.988 6.34789 123.949 6.81289L123.929 7.25281H122.149V13.9653H120.428H120.429Z" fill="black"/>
<path d="M134.592 5.57459C134.875 5.57459 135.15 5.57794 135.411 5.58463C135.598 5.58964 135.793 5.61306 135.989 5.65321H135.999L136.009 5.65655C136.629 5.77531 137.136 6.02956 137.56 6.43268C137.941 6.79732 138.176 7.27571 138.275 7.89627L138.279 7.91467L138.282 7.93307C138.31 8.08194 138.326 8.2375 138.331 8.39473C138.338 8.62556 138.341 8.85974 138.341 9.09057C138.341 9.30635 138.338 9.52881 138.331 9.74793C138.326 9.90015 138.31 10.0524 138.282 10.2079C138.176 10.8017 137.946 11.2383 137.565 11.5812C137.136 11.9659 136.629 12.2068 136.022 12.3188C135.809 12.3523 135.593 12.3757 135.381 12.3874C135.131 12.4008 134.874 12.4075 134.617 12.4075C133.598 12.4075 132.206 12.349 131.664 12.282C131.228 12.2118 130.823 12.083 130.458 11.8973C130.129 11.7284 129.849 11.5076 129.606 11.2216C129.415 10.9958 129.274 10.6746 129.187 10.2648C129.161 10.1025 129.145 9.94197 129.14 9.78808C129.133 9.55725 129.13 9.32307 129.13 9.09224V8.5804C129.13 7.71897 129.33 7.07666 129.741 6.61834C130.181 6.12658 130.827 5.81546 131.714 5.66826C131.949 5.63313 132.186 5.60972 132.417 5.59801C132.743 5.5863 134.101 5.57794 134.594 5.57794M134.594 3.88351C134.302 3.88351 132.641 3.8902 132.343 3.90525C132.045 3.92031 131.75 3.95042 131.46 3.99391C130.196 4.20132 129.215 4.69476 128.517 5.47423C127.82 6.2537 127.471 7.28909 127.471 8.5804V9.09224C127.471 9.34482 127.474 9.59405 127.482 9.83826C127.49 10.0825 127.515 10.3317 127.559 10.5843C127.705 11.2968 127.97 11.8789 128.355 12.3322C128.74 12.7855 129.195 13.1452 129.718 13.4128C130.24 13.6804 130.809 13.8611 131.418 13.9581C132.029 14.0551 134.007 14.1036 134.617 14.1036C134.906 14.1036 135.191 14.0952 135.467 14.0819C135.742 14.0668 136.019 14.0367 136.295 13.9932C137.211 13.8293 138 13.4513 138.662 12.8575C139.324 12.2636 139.741 11.4842 139.915 10.519C139.959 10.2815 139.984 10.044 139.992 9.80648C139.998 9.56896 140.003 9.33144 140.003 9.09391C140.003 8.84134 140 8.59211 139.992 8.3479C139.984 8.10369 139.959 7.86115 139.915 7.62363C139.754 6.62838 139.348 5.82048 138.693 5.19656C138.04 4.57265 137.247 4.17288 136.317 3.99391C136.025 3.93369 135.738 3.90024 135.455 3.89354C135.172 3.88518 134.885 3.88184 134.594 3.88184V3.88351Z" fill="black"/>
<path d="M19.4621 5.57459C19.7454 5.57459 20.0206 5.57794 20.281 5.58463C20.4677 5.58964 20.6626 5.61306 20.8592 5.65321H20.869L20.8788 5.65655C21.4996 5.77531 22.0056 6.02956 22.4298 6.43268C22.8115 6.79732 23.0457 7.27571 23.1456 7.89627L23.1489 7.91467L23.1521 7.93307C23.18 8.08194 23.1964 8.2375 23.2013 8.39473C23.2078 8.62556 23.2111 8.85974 23.2111 9.09057C23.2111 9.30635 23.2078 9.52881 23.2013 9.74793C23.1964 9.90015 23.18 10.0524 23.1521 10.2079C23.0457 10.8017 22.8164 11.2383 22.4348 11.5812C22.0056 11.9659 21.4996 12.2068 20.8919 12.3188C20.679 12.3523 20.4628 12.3757 20.2515 12.3874C20.0009 12.4008 19.7438 12.4075 19.4867 12.4075C18.4679 12.4075 17.0758 12.349 16.5337 12.282C16.098 12.2118 15.6935 12.083 15.3282 11.8973C14.999 11.7284 14.7189 11.5076 14.4765 11.2216C14.2849 10.9958 14.1441 10.6746 14.0573 10.2648C14.0311 10.1025 14.0147 9.94197 14.0098 9.78808C14.0032 9.55725 13.9999 9.32307 13.9999 9.09224V8.5804C13.9999 7.71897 14.1998 7.07666 14.6109 6.61834C15.0514 6.12658 15.6967 5.81546 16.5844 5.66826C16.8186 5.63313 17.0561 5.60972 17.2871 5.59801C17.613 5.5863 18.9708 5.57794 19.4637 5.57794M19.4637 3.88351C19.1722 3.88351 17.5114 3.8902 17.2134 3.90525C16.9153 3.92031 16.6205 3.95042 16.3306 3.99391C15.0662 4.20132 14.0851 4.69476 13.3874 5.47423C12.6897 6.2537 12.3408 7.28909 12.3408 8.5804V9.09224C12.3408 9.34482 12.3441 9.59405 12.3523 9.83826C12.3605 10.0825 12.385 10.3317 12.4293 10.5843C12.575 11.2968 12.8404 11.8789 13.2252 12.3322C13.6101 12.7855 14.0655 13.1452 14.5879 13.4128C15.1104 13.6804 15.6787 13.8611 16.288 13.9581C16.8989 14.0551 18.8774 14.1036 19.4867 14.1036C19.7766 14.1036 20.0615 14.0952 20.3367 14.0819C20.6119 14.0668 20.8886 14.0367 21.1654 13.9932C22.081 13.8293 22.8704 13.4513 23.5321 12.8575C24.1938 12.2636 24.6114 11.4842 24.785 10.519C24.8293 10.2815 24.8538 10.044 24.862 9.80648C24.8686 9.56896 24.8735 9.33144 24.8735 9.09391C24.8735 8.84134 24.8702 8.59211 24.862 8.3479C24.8538 8.10369 24.8293 7.86115 24.785 7.62363C24.6245 6.62838 24.2184 5.82048 23.5632 5.19656C22.9097 4.57265 22.117 4.17288 21.1867 3.99391C20.8952 3.93369 20.6086 3.90024 20.3252 3.89354C20.0419 3.88518 19.7553 3.88184 19.4637 3.88184V3.88351Z" fill="black"/>
</g>
<defs>
<clipPath id="clip0_258_5622">
<rect width="140" height="19" fill="white"/>
</clipPath>
</defs>
</svg>
