<svg width="251" height="47" viewBox="0 0 251 47" fill="none" xmlns="http://www.w3.org/2000/svg">
<path d="M32.807 0.0050713C31.4681 0.0050713 23.8143 0.0380348 22.4425 0.106497C21.0707 0.172424 19.7141 0.306814 18.3752 0.509666C12.5513 1.44532 8.03344 3.67669 4.81905 7.19618C1.60719 10.7182 0 15.3965 0 21.231V23.5435C0 24.6846 0.0177171 25.8079 0.0506203 26.9134C0.0860545 28.0189 0.202481 29.1422 0.402431 30.2833C1.07062 33.5036 2.2931 36.133 4.06734 38.1793C5.84158 40.223 7.9322 41.8509 10.3443 43.0579C12.7538 44.2649 15.3658 45.0864 18.1777 45.5225C20.9897 45.9587 30.0988 46.1767 32.9108 46.1767C34.2497 46.1767 35.5557 46.1412 36.8262 46.0779C38.0968 46.0094 39.3699 45.8775 40.643 45.6747C44.8597 44.9368 48.4917 43.2252 51.539 40.5451C54.5838 37.8623 56.5099 34.3403 57.3123 29.9815C57.5122 28.909 57.6286 27.8338 57.6641 26.7613C57.697 25.6887 57.7147 24.6136 57.7147 23.541C57.7147 22.3999 57.697 21.2766 57.6641 20.1711C57.6286 19.0656 57.5122 17.9727 57.3123 16.9001C56.5757 12.4069 54.7028 8.75307 51.6884 5.93596C48.6764 3.11885 45.0267 1.3084 40.7442 0.504595C39.4053 0.235816 38.0842 0.0862121 36.7782 0.050713C35.4721 0.0152139 34.151 0 32.8121 0L32.807 0.0050713Z" fill="#B3FF01"/>
<path d="M26.3933 29.6338L32.9208 23.0943L26.3857 16.5498H27.2792L33.8117 23.0943L27.2868 29.6338H26.3933Z" fill="#B3FF01"/>
<path d="M27.9067 15.0283H22.7207L30.7719 23.0942L22.7283 31.1551H27.9169L35.9579 23.0942L27.9067 15.0283Z" fill="black"/>
<path d="M70.0325 15.1388L70.0581 15.9819C70.1094 16.9021 70.3678 17.604 70.8356 18.0898C71.3034 18.5755 72.0211 18.8174 72.9909 18.8174H75.975C76.5709 18.8174 77.0558 18.736 77.4296 18.5755C77.8034 18.4129 78.1067 18.1839 78.3353 17.8843C78.5639 17.5869 78.7219 17.2231 78.8074 16.7972C78.8928 16.3714 78.9355 15.8942 78.9355 15.3656C78.9355 14.7514 78.8501 14.24 78.6813 13.8312C78.5105 13.4225 78.2648 13.0994 77.9423 12.8597C77.6197 12.6222 77.2246 12.4552 76.7568 12.3611C76.289 12.2669 75.7571 12.2198 75.1611 12.2198H72.7367C72.0382 12.2198 71.3974 12.1214 70.81 11.9267C70.2226 11.7319 69.7206 11.4409 69.3041 11.0578C68.8875 10.6748 68.5607 10.2018 68.3215 9.63904C68.0822 9.07622 67.9648 8.43851 67.9648 7.72162C67.9648 6.78432 68.11 6.01393 68.3984 5.40832C68.6868 4.80271 69.0627 4.32978 69.5219 3.98952C69.9812 3.64927 70.4917 3.40959 71.0535 3.27477C71.6153 3.13781 72.1771 3.06934 72.7367 3.06934H75.9258C77.3207 3.06934 78.4528 3.46523 79.32 4.25702C80.1873 5.04881 80.6209 6.20439 80.6209 7.72162V7.9506C80.6209 8.01908 80.6123 8.09612 80.5953 8.17958H78.2477C78.2477 7.7366 78.2135 7.33215 78.1452 6.96622C78.0768 6.60028 77.9529 6.28143 77.7757 6.00751C77.5962 5.73574 77.3506 5.52602 77.0366 5.3805C76.7226 5.23498 76.3189 5.16222 75.8254 5.16222H73.2494C72.9781 5.16222 72.6748 5.17934 72.3437 5.21358C72.0126 5.24782 71.6964 5.34626 71.3995 5.50676C71.1026 5.6694 70.8506 5.92405 70.6476 6.27287C70.4426 6.62168 70.3422 7.10317 70.3422 7.71734C70.3422 8.68889 70.5836 9.3266 71.0685 9.63476C71.5533 9.94077 72.2283 10.0948 73.0977 10.0948H75.5221C76.3894 10.0948 77.1797 10.1976 77.8953 10.4009C78.6087 10.6063 79.2175 10.9209 79.7195 11.3467C80.2214 11.7726 80.6123 12.3183 80.8922 12.9817C81.172 13.6472 81.313 14.439 81.313 15.3592C81.313 16.1938 81.2104 16.9534 81.0075 17.634C80.8024 18.3166 80.4927 18.903 80.0762 19.3973C79.6597 19.8916 79.1278 20.2747 78.4806 20.5486C77.8333 20.8204 77.0686 20.9573 76.1843 20.9573H72.9952C71.2094 20.9573 69.8829 20.4544 69.0157 19.4486C68.1485 18.4429 67.7148 17.0797 67.7148 15.3592V15.1281H70.0367L70.0325 15.1388Z" fill="#0C0C0C"/>
<path d="M103.353 16.802V8.18652H105.598V16.7485C105.598 17.0545 105.615 17.3456 105.649 17.6174C105.683 17.8891 105.764 18.1331 105.89 18.3449C106.019 18.5589 106.204 18.728 106.452 18.8564C106.698 18.9848 107.035 19.049 107.46 19.049H108.328C108.889 19.049 109.323 18.9163 109.628 18.6531C109.934 18.3899 110.096 17.9683 110.113 17.3884L110.139 16.7999H112.461V8.18652H114.706V20.9664H112.461V17.1316H112.078C112.044 18.3064 111.726 19.2523 111.122 19.9692C110.517 20.6839 109.577 21.0434 108.302 21.0434H107.255C106.405 21.0434 105.724 20.9279 105.213 20.6989C104.703 20.4699 104.308 20.1575 104.028 19.7659C103.748 19.3743 103.564 18.9227 103.479 18.4113C103.393 17.8998 103.351 17.3627 103.351 16.7999L103.353 16.802Z" fill="#0C0C0C"/>
<path d="M117.767 20.9429V8.18652H120.012V12.0213H120.394C120.428 10.8294 120.7 9.89208 121.21 9.20943C121.721 8.52892 122.605 8.18652 123.863 8.18652H125.521V10.1553H124.297C123.632 10.1553 123.156 10.2794 122.868 10.5255C122.579 10.7737 122.408 11.1953 122.357 11.7902L122.332 12.353H120.01V20.9407H117.765L117.767 20.9429Z" fill="#0C0C0C"/>
<path d="M127.029 12.353C127.234 11.2617 127.689 10.3586 128.394 9.64384C129.099 8.92909 130.013 8.47756 131.136 8.28924C131.442 8.23788 131.737 8.20792 132.016 8.19936C132.296 8.1908 132.582 8.18652 132.871 8.18652C133.142 8.18652 133.424 8.1908 133.712 8.19936C134.001 8.20792 134.291 8.23788 134.58 8.28924C135.635 8.46044 136.477 8.88201 137.107 9.55396C137.737 10.2281 138.085 11.0498 138.153 12.0213V12.2268H135.985C135.883 11.5955 135.611 11.099 135.169 10.7309C134.727 10.365 134.088 10.181 133.255 10.181H132.362C131.818 10.181 131.341 10.2751 130.933 10.4613C130.525 10.6496 130.19 10.9086 129.925 11.2403C129.66 11.572 129.466 11.9657 129.338 12.4151C129.21 12.8666 129.146 13.3481 129.146 13.8596V14.8825C129.146 15.4111 129.197 15.9353 129.299 16.4554C129.402 16.9754 129.579 17.4355 129.836 17.8356C130.09 18.2358 130.427 18.5611 130.844 18.8072C131.26 19.0554 131.775 19.1774 132.388 19.1774H133.358C133.92 19.1774 134.379 19.0661 134.736 18.8457C135.092 18.6253 135.374 18.3214 135.577 17.9384C135.782 17.5553 135.921 17.1123 135.998 16.6094C136.075 16.1065 136.113 15.5737 136.113 15.0109H138.307C138.324 15.2506 138.333 15.4924 138.333 15.7385C138.333 15.9846 138.316 16.2285 138.281 16.4661C138.213 17.0118 138.098 17.536 137.938 18.0389C137.775 18.5418 137.547 18.9976 137.248 19.4064C136.951 19.8151 136.588 20.1639 136.163 20.455C135.737 20.7439 135.227 20.9493 134.631 21.0691C134.34 21.1205 134.052 21.1504 133.764 21.159C133.475 21.1676 133.159 21.1718 132.82 21.1718H132.309C132.104 21.1718 131.897 21.1676 131.683 21.159C131.47 21.1504 131.262 21.1205 131.057 21.0691C130.461 20.9664 129.934 20.7717 129.475 20.4806C129.015 20.1917 128.616 19.8408 128.276 19.4321C127.937 19.0233 127.663 18.5632 127.46 18.0518C127.255 17.5403 127.112 17.0032 127.027 16.4425C126.992 16.205 126.963 15.9011 126.937 15.5352C126.911 15.1692 126.898 14.7862 126.898 14.3839C126.898 13.9816 126.907 13.6006 126.924 13.2326C126.941 12.8666 126.975 12.5713 127.027 12.3509L127.029 12.353Z" fill="#0C0C0C"/>
<path d="M140.703 12.353C140.908 11.2617 141.344 10.3543 142.017 9.631C142.69 8.90769 143.613 8.45188 144.785 8.26356C145.057 8.22932 145.339 8.20792 145.627 8.19936C145.915 8.1908 146.206 8.18652 146.494 8.18652H146.953C147.718 8.18652 148.408 8.31064 149.019 8.55674C149.632 8.80497 150.149 9.15379 150.576 9.60532C151.001 10.0569 151.324 10.6025 151.546 11.2403C151.766 11.8801 151.877 12.582 151.877 13.3481V15.0344H142.718V15.8262C142.718 16.8149 142.997 17.6152 143.559 18.2294C144.121 18.8436 144.886 19.1496 145.855 19.1496H147.054C147.462 19.1496 147.814 19.0811 148.113 18.9441C148.41 18.8072 148.667 18.6296 148.878 18.407C149.092 18.1866 149.256 17.9298 149.376 17.6409C149.495 17.352 149.57 17.0438 149.604 16.7207H151.747C151.73 17.2322 151.636 17.7222 151.467 18.1909C151.296 18.6595 151.063 19.0854 150.766 19.4684C150.469 19.8515 150.106 20.181 149.681 20.4528C149.256 20.7267 148.771 20.9215 148.226 21.0413C147.953 21.0927 147.682 21.1226 147.411 21.1312C147.139 21.1397 146.857 21.144 146.569 21.144H145.981C144.501 21.144 143.311 20.731 142.41 19.905C141.509 19.079 140.938 17.9234 140.701 16.4425C140.65 16.1023 140.62 15.7577 140.611 15.4068C140.603 15.058 140.599 14.7134 140.599 14.371V13.361C140.599 13.0293 140.633 12.6933 140.701 12.3509L140.703 12.353ZM149.76 13.2475C149.743 12.8217 149.683 12.4215 149.581 12.047C149.478 11.6725 149.32 11.3451 149.109 11.0626C148.895 10.7823 148.611 10.5597 148.254 10.3971C147.898 10.2345 147.464 10.1553 146.953 10.1553H145.755C144.837 10.1553 144.1 10.3907 143.549 10.8572C142.995 11.3259 142.72 12.0042 142.72 12.8902V13.2475H149.762H149.76Z" fill="#0C0C0C"/>
<path d="M154.558 20.9685V8.18652H156.803V9.28647C157.074 8.94621 157.42 8.67658 157.836 8.48184C158.253 8.2871 158.759 8.18866 159.355 8.18866H160.707C161.54 8.18866 162.226 8.31278 162.762 8.55888C163.298 8.80711 163.728 9.13453 164.05 9.54326C164.39 9.13453 164.815 8.80711 165.325 8.55888C165.836 8.31278 166.464 8.18866 167.214 8.18866H168.82C169.67 8.18866 170.364 8.31706 170.901 8.57172C171.437 8.82637 171.866 9.16021 172.189 9.56894C172.511 9.97768 172.733 10.4463 172.853 10.9749C172.973 11.5035 173.032 12.0492 173.032 12.6098V20.9685H170.813V12.6869C170.813 12.3809 170.783 12.077 170.723 11.7795C170.663 11.4821 170.548 11.2124 170.379 10.9749C170.208 10.7374 169.988 10.5448 169.715 10.3992C169.442 10.2537 169.085 10.181 168.643 10.181H167.342C167.054 10.181 166.763 10.2109 166.475 10.2709C166.184 10.3308 165.926 10.4506 165.697 10.6282C165.466 10.808 165.281 11.0541 165.135 11.3687C164.99 11.6832 164.92 12.0962 164.92 12.6077V20.9664H162.7V12.6869C162.7 12.3809 162.67 12.077 162.611 11.7795C162.551 11.4821 162.435 11.2124 162.267 10.9749C162.096 10.7374 161.876 10.5448 161.602 10.3992C161.329 10.2537 160.972 10.181 160.53 10.181H159.229C158.941 10.181 158.65 10.2109 158.362 10.2709C158.074 10.3308 157.813 10.4506 157.584 10.6282C157.356 10.808 157.168 11.0541 157.023 11.3687C156.877 11.6832 156.805 12.0962 156.805 12.6077V20.9664H154.56L154.558 20.9685Z" fill="#0C0C0C"/>
<path d="M180.199 13.0431H184.894V12.1486C184.894 11.5858 184.728 11.1086 184.397 10.7169C184.066 10.3253 183.525 10.1285 182.775 10.1285H180.402C179.704 10.1285 179.191 10.2611 178.858 10.5243C178.527 10.7897 178.343 11.177 178.309 11.6885H176.192C176.192 11.1942 176.265 10.7341 176.408 10.3082C176.553 9.88235 176.782 9.51214 177.098 9.19542C177.412 8.88085 177.82 8.63261 178.322 8.455C178.824 8.27524 179.439 8.1875 180.172 8.1875H183.207C183.871 8.1875 184.448 8.28594 184.941 8.48068C185.435 8.67755 185.843 8.94505 186.165 9.2853C186.488 9.62556 186.731 10.0257 186.892 10.4858C187.054 10.9459 187.133 11.4402 187.133 11.9688L187.107 20.9674H184.862V17.1326H184.454C184.454 17.6954 184.369 18.2239 184.2 18.7183C184.029 19.2126 183.784 19.6427 183.461 20.0087C183.139 20.3746 182.737 20.6614 182.263 20.8647C181.786 21.0701 181.225 21.1707 180.58 21.1707H179.712C178.318 21.1707 177.279 20.7876 176.6 20.0194C175.919 19.2533 175.579 18.2646 175.579 17.0534C175.579 16.3729 175.694 15.7801 175.923 15.2772C176.154 14.7743 176.472 14.357 176.88 14.0253C177.288 13.6936 177.773 13.4454 178.335 13.2849C178.896 13.1223 179.516 13.0431 180.197 13.0431H180.199ZM177.749 17.0042C177.749 17.3273 177.779 17.6312 177.839 17.9115C177.899 18.1918 178.006 18.4358 178.157 18.6391C178.311 18.8445 178.514 19.005 178.77 19.1249C179.025 19.2447 179.349 19.3046 179.74 19.3046H180.505C181.184 19.3046 181.699 19.0842 182.049 18.6391C182.397 18.1961 182.573 17.6504 182.573 17.0042V16.7987H184.869L184.894 14.907H180.43C179.563 14.907 178.899 15.0654 178.439 15.3799C177.98 15.6945 177.749 16.2359 177.749 17.002V17.0042Z" fill="#0C0C0C"/>
<path d="M190.203 27.3838V8.2118H192.448V12.0466H192.831C192.865 10.8547 193.192 9.90452 193.813 9.19619C194.435 8.49 195.383 8.13477 196.658 8.13477H197.934C198.801 8.13477 199.491 8.30596 199.999 8.64622C200.51 8.98647 200.896 9.42089 201.159 9.94946C201.422 10.478 201.597 11.0665 201.682 11.7128C201.768 12.3612 201.811 12.9818 201.811 13.5788V15.4192C201.811 17.2082 201.441 18.5842 200.7 19.5472C199.961 20.5102 198.756 20.9917 197.09 20.9917H192.446V27.3816H190.201L190.203 27.3838ZM196.684 18.9994C197.297 18.9994 197.791 18.9095 198.164 18.7319C198.538 18.5521 198.829 18.3103 199.032 18.0043C199.237 17.6983 199.376 17.3259 199.452 16.8915C199.529 16.4571 199.568 15.9842 199.568 15.4727V14.0668C199.568 13.5211 199.559 13.0096 199.542 12.5324C199.525 12.0552 199.448 11.6379 199.311 11.2805C199.175 10.9231 198.95 10.6407 198.636 10.4374C198.322 10.2319 197.867 10.1314 197.272 10.1314H196.633C196.088 10.1314 195.65 10.264 195.319 10.5272C194.988 10.7926 194.804 11.2142 194.77 11.792V12.3805H192.448V19.0015H196.684V18.9994Z" fill="#0C0C0C"/>
<path d="M204.618 18.4873H206.914V20.9418H204.618V18.4873Z" fill="#0C0C0C"/>
<path d="M210.103 27.3838V8.2118H212.348V12.0466H212.73C212.764 10.8547 213.091 9.90452 213.713 9.19619C214.334 8.49 215.283 8.13477 216.558 8.13477H217.833C218.7 8.13477 219.39 8.30596 219.899 8.64622C220.409 8.98647 220.796 9.42089 221.059 9.94946C221.321 10.478 221.496 11.0665 221.582 11.7128C221.667 12.3612 221.71 12.9818 221.71 13.5788V15.4192C221.71 17.2082 221.341 18.5842 220.599 19.5472C219.86 20.5102 218.655 20.9917 216.989 20.9917H212.346V27.3816H210.101L210.103 27.3838ZM216.584 18.9994C217.197 18.9994 217.69 18.9095 218.064 18.7319C218.438 18.5521 218.728 18.3103 218.931 18.0043C219.134 17.6983 219.275 17.3259 219.352 16.8915C219.429 16.4571 219.467 15.9842 219.467 15.4727V14.0668C219.467 13.5211 219.459 13.0096 219.442 12.5324C219.424 12.0552 219.348 11.6379 219.211 11.2805C219.074 10.9231 218.85 10.6407 218.536 10.4374C218.222 10.2319 217.767 10.1314 217.171 10.1314H216.532C215.988 10.1314 215.55 10.264 215.219 10.5272C214.887 10.7926 214.704 11.2142 214.67 11.792V12.3805H212.348V19.0015H216.584V18.9994Z" fill="#0C0C0C"/>
<path d="M224.775 20.9429V8.18652H227.02V12.0213H227.402C227.436 10.8294 227.707 9.89208 228.218 9.20943C228.728 8.52892 229.613 8.18652 230.871 8.18652H232.528V10.1553H231.305C230.64 10.1553 230.164 10.2794 229.875 10.5255C229.585 10.7737 229.416 11.1953 229.365 11.7902L229.339 12.353H227.017V20.9407H224.772L224.775 20.9429Z" fill="#0C0C0C"/>
<path d="M243.245 10.2057C243.614 10.2057 243.973 10.21 244.313 10.2185C244.556 10.2249 244.81 10.2549 245.067 10.3063H245.079L245.092 10.3105C245.902 10.4625 246.562 10.7878 247.115 11.3035C247.613 11.77 247.918 12.382 248.049 13.176L248.053 13.1995L248.057 13.223C248.093 13.4135 248.115 13.6125 248.121 13.8137C248.13 14.109 248.134 14.4086 248.134 14.7039C248.134 14.98 248.13 15.2646 248.121 15.5449C248.115 15.7396 248.093 15.9344 248.057 16.1334C247.918 16.8931 247.619 17.4516 247.122 17.8903C246.562 18.3825 245.902 18.6907 245.109 18.834C244.832 18.8768 244.55 18.9068 244.274 18.9218C243.947 18.9389 243.612 18.9475 243.277 18.9475C241.948 18.9475 240.132 18.8726 239.425 18.787C238.857 18.6971 238.33 18.5323 237.853 18.2948C237.424 18.0786 237.059 17.7962 236.742 17.4302C236.493 17.1413 236.309 16.7304 236.196 16.2062C236.161 15.9986 236.14 15.7931 236.134 15.5963C236.125 15.3009 236.121 15.0014 236.121 14.706V14.0512C236.121 12.9491 236.381 12.1274 236.918 11.541C237.492 10.9119 238.334 10.5138 239.492 10.3255C239.797 10.2806 240.107 10.2506 240.408 10.2356C240.833 10.2207 242.604 10.21 243.247 10.21M243.247 8.04218C242.867 8.04218 240.701 8.05074 240.312 8.07C239.923 8.08926 239.539 8.12778 239.16 8.18342C237.511 8.44877 236.232 9.08006 235.322 10.0773C234.412 11.0745 233.957 12.3992 233.957 14.0512V14.706C233.957 15.0292 233.961 15.348 233.972 15.6605C233.983 15.9729 234.015 16.2918 234.072 16.6149C234.262 17.5265 234.609 18.2712 235.111 18.8512C235.612 19.4311 236.206 19.8912 236.888 20.2336C237.569 20.576 238.31 20.8071 239.105 20.9312C239.902 21.0553 242.482 21.1174 243.277 21.1174C243.655 21.1174 244.026 21.1067 244.385 21.0896C244.744 21.0703 245.105 21.0318 245.466 20.9761C246.66 20.7664 247.69 20.2828 248.553 19.5231C249.416 18.7634 249.96 17.7662 250.187 16.5314C250.244 16.2276 250.276 15.9237 250.287 15.6198C250.296 15.3159 250.302 15.0121 250.302 14.7082C250.302 14.385 250.298 14.0662 250.287 13.7538C250.276 13.4413 250.244 13.131 250.187 12.8271C249.977 11.5539 249.448 10.5203 248.593 9.72205C247.741 8.92385 246.707 8.41239 245.494 8.18342C245.114 8.10638 244.74 8.06358 244.37 8.05502C244.001 8.04432 243.627 8.04004 243.247 8.04004V8.04218Z" fill="#0C0C0C"/>
<path d="M93.0942 10.2057C93.4637 10.2057 93.8226 10.21 94.1622 10.2185C94.4057 10.2249 94.6599 10.2549 94.9163 10.3063H94.9291L94.9419 10.3105C95.7514 10.4625 96.4115 10.7878 96.9647 11.3035C97.4624 11.77 97.7679 12.382 97.8982 13.176L97.9025 13.1995L97.9067 13.223C97.943 13.4135 97.9644 13.6125 97.9708 13.8137C97.9794 14.109 97.9836 14.4086 97.9836 14.7039C97.9836 14.98 97.9794 15.2646 97.9708 15.5449C97.9644 15.7396 97.943 15.9344 97.9067 16.1334C97.7679 16.8931 97.4688 17.4516 96.9711 17.8903C96.4115 18.3825 95.7515 18.6907 94.959 18.834C94.6813 18.8768 94.3993 18.9068 94.1238 18.9218C93.797 18.9389 93.4616 18.9475 93.1262 18.9475C91.7976 18.9475 89.982 18.8726 89.2749 18.787C88.7067 18.6971 88.1791 18.5323 87.7028 18.2948C87.2735 18.0786 86.9082 17.7962 86.592 17.4302C86.3421 17.1413 86.1584 16.7304 86.0452 16.2062C86.011 15.9986 85.9897 15.7931 85.9833 15.5963C85.9747 15.3009 85.9705 15.0014 85.9705 14.706V14.0512C85.9705 12.9491 86.2311 12.1274 86.7672 11.541C87.3418 10.9119 88.1834 10.5138 89.3411 10.3255C89.6466 10.2806 89.9563 10.2506 90.2575 10.2356C90.6826 10.2207 92.4534 10.21 93.0963 10.21M93.0963 8.04218C92.7161 8.04218 90.5502 8.05074 90.1614 8.07C89.7726 8.08926 89.3881 8.12778 89.0101 8.18342C87.361 8.44877 86.0815 9.08006 85.1716 10.0773C84.2616 11.0745 83.8066 12.3992 83.8066 14.0512V14.706C83.8066 15.0292 83.8109 15.348 83.8216 15.6605C83.8323 15.9729 83.8643 16.2918 83.922 16.6149C84.1121 17.5265 84.4581 18.2712 84.9601 18.8512C85.4621 19.4311 86.0559 19.8912 86.7373 20.2336C87.4187 20.576 88.1599 20.8071 88.9545 20.9312C89.7513 21.0553 92.3316 21.1174 93.1262 21.1174C93.5043 21.1174 93.876 21.1067 94.2348 21.0896C94.5937 21.0703 94.9547 21.0318 95.3157 20.9761C96.5097 20.7664 97.5393 20.2828 98.4023 19.5231C99.2653 18.7634 99.8099 17.7662 100.036 16.5314C100.094 16.2276 100.126 15.9237 100.137 15.6198C100.145 15.3159 100.152 15.0121 100.152 14.7082C100.152 14.385 100.147 14.0662 100.137 13.7538C100.126 13.4413 100.094 13.131 100.036 12.8271C99.827 11.5539 99.2973 10.5203 98.4429 9.72205C97.5906 8.92385 96.5567 8.41239 95.3435 8.18342C94.9632 8.10638 94.5894 8.06358 94.2199 8.05502C93.8504 8.04432 93.4766 8.04004 93.0963 8.04004V8.04218Z" fill="#0C0C0C"/>
<path d="M72.3158 27.3838L67.7148 35.8166H68.5382L73.1392 27.3838H72.3158Z" fill="#0C0C0C"/>
<path d="M78.4179 28.9152C77.9771 28.6944 77.4433 28.584 76.8187 28.584C76.2417 28.584 75.7187 28.6814 75.2541 28.8741C74.7895 29.069 74.3897 29.3374 74.0569 29.6838C73.724 30.0302 73.4669 30.4308 73.2875 30.8876C73.1081 31.3444 73.0195 31.8316 73.0195 32.3512C73.0195 32.8708 73.1341 33.3363 73.3631 33.7346C73.5922 34.1308 73.9272 34.4404 74.368 34.6613C74.8089 34.8821 75.3384 34.9925 75.9586 34.9925C76.5356 34.9925 77.0586 34.8951 77.5276 34.7024C77.9943 34.5076 78.3963 34.2391 78.7291 33.8927C79.0619 33.5463 79.3191 33.1457 79.4985 32.6889C79.6778 32.2321 79.7664 31.745 79.7664 31.2253C79.7664 30.7057 79.6519 30.2402 79.4228 29.8419C79.1938 29.4457 78.8588 29.1361 78.4179 28.9152ZM78.6686 32.3966C78.5368 32.7495 78.3509 33.0613 78.1067 33.3319C77.8625 33.6026 77.5643 33.8147 77.2142 33.9663C76.8619 34.1178 76.4729 34.1958 76.0429 34.1958C75.5783 34.1958 75.1893 34.1157 74.8759 33.9533C74.5625 33.7909 74.3248 33.5701 74.1606 33.2865C73.9963 33.0028 73.9142 32.6738 73.9142 32.297C73.9142 31.9203 73.9791 31.5306 74.1109 31.1777C74.2427 30.8248 74.4307 30.513 74.6792 30.2424C74.9256 29.9718 75.2238 29.7596 75.5718 29.6081C75.9197 29.4565 76.3109 29.3786 76.7474 29.3786C77.2056 29.3786 77.5924 29.4587 77.9101 29.621C78.2256 29.7813 78.4633 30.0043 78.6254 30.2879C78.7875 30.5715 78.8674 30.9006 78.8674 31.2773C78.8674 31.654 78.8026 32.0437 78.6708 32.3966H78.6686Z" fill="#0C0C0C"/>
<path d="M85.2283 32.6923C85.1268 33.199 84.9236 33.5778 84.6211 33.829C84.3164 34.0801 83.9425 34.2057 83.4951 34.2057C83.0478 34.2057 82.7582 34.0845 82.5875 33.8441C82.4168 33.6017 82.3735 33.2704 82.4578 32.846L82.9851 30.1787H82.1272L81.5999 32.8374C81.5113 33.292 81.5221 33.6774 81.6366 33.9957C81.749 34.314 81.9456 34.5586 82.2223 34.7253C82.4989 34.892 82.8403 34.9765 83.2445 34.9765C83.6486 34.9765 84.0441 34.892 84.392 34.721C84.6016 34.6192 84.7832 34.4785 84.9452 34.3096L84.8242 34.9223H85.6454L86.5833 30.1787H85.7254L85.224 32.6945L85.2283 32.6923Z" fill="#0C0C0C"/>
<path d="M90.3018 29.1399H89.4439L89.2364 30.1791H88.426L88.292 30.8871H89.0959L88.5881 33.4288C88.5275 33.7449 88.5427 34.0199 88.6291 34.2515C88.7156 34.4854 88.8625 34.6629 89.0678 34.7885C89.2731 34.914 89.5195 34.9768 89.8048 34.9768C89.9884 34.9768 90.1786 34.9552 90.3731 34.914C90.5655 34.8729 90.7448 34.795 90.9047 34.6802L90.7254 34.0264C90.6303 34.0978 90.5222 34.1541 90.4034 34.1909C90.2845 34.2299 90.1657 34.2494 90.0468 34.2494C89.7896 34.2494 89.6167 34.1736 89.5238 34.022C89.4309 33.8705 89.405 33.6648 89.4482 33.4093L89.956 30.8849H91.3154L91.458 30.1769H90.0965L90.3061 29.1377L90.3018 29.1399Z" fill="#0C0C0C"/>
<path d="M94.117 31.0683C94.3202 30.9341 94.6205 30.867 95.0203 30.867C95.2645 30.867 95.5087 30.8951 95.7529 30.9514C95.9971 31.0077 96.2176 31.1051 96.4142 31.2415L96.7535 30.5617C96.5634 30.4253 96.317 30.3192 96.0166 30.2434C95.7162 30.1698 95.4093 30.1309 95.1003 30.1309C94.6724 30.1309 94.2964 30.1936 93.9744 30.3192C93.6524 30.4448 93.4017 30.6223 93.2245 30.8518C93.0451 31.0813 92.9565 31.3541 92.9565 31.6702C92.9565 31.9322 93.0213 32.1422 93.1488 32.3002C93.2763 32.4583 93.4384 32.5795 93.6351 32.6618C93.8317 32.7462 94.0435 32.809 94.2704 32.8545C94.4974 32.9 94.7091 32.9433 94.9101 32.9887C95.1089 33.0342 95.271 33.0948 95.3964 33.1771C95.5217 33.2572 95.5844 33.3763 95.5844 33.53C95.5844 33.7443 95.4807 33.9154 95.271 34.0409C95.0614 34.1665 94.7524 34.2293 94.3418 34.2293C94.0198 34.2293 93.7129 34.1838 93.4168 34.0951C93.1229 34.0063 92.883 33.8894 92.6972 33.7465L92.3125 34.4263C92.5027 34.5822 92.775 34.7121 93.1294 34.816C93.4838 34.9199 93.8598 34.9719 94.2596 34.9719C94.6875 34.9719 95.0657 34.9113 95.3942 34.7922C95.7227 34.6731 95.9755 34.4978 96.1571 34.2683C96.3386 34.0388 96.4294 33.7595 96.4294 33.4304C96.4294 33.1684 96.3667 32.9606 96.2414 32.809C96.116 32.6575 95.9539 32.5406 95.7551 32.4605C95.5563 32.3803 95.3445 32.3176 95.1197 32.2721C94.8972 32.2266 94.6854 32.1812 94.4844 32.1335C94.2856 32.0859 94.1213 32.0188 93.9981 31.9322C93.875 31.8456 93.8101 31.7243 93.8101 31.5706C93.8101 31.3671 93.9117 31.1982 94.1148 31.064L94.117 31.0683Z" fill="#0C0C0C"/>
<path d="M102.079 30.382C101.747 30.2153 101.355 30.1309 100.908 30.1309C100.372 30.1309 99.8945 30.2521 99.4731 30.4924C99.0539 30.7349 98.7232 31.0662 98.4855 31.4862C98.2478 31.9062 98.1289 32.3868 98.1289 32.9238C98.1289 33.3351 98.2218 33.6945 98.4055 34.002C98.5892 34.3094 98.8485 34.5476 99.1792 34.7186C99.5098 34.8896 99.901 34.9741 100.355 34.9741C100.897 34.9741 101.375 34.8528 101.79 34.606C102.205 34.3614 102.529 34.0279 102.769 33.6079C103.006 33.1879 103.125 32.7073 103.125 32.1703C103.125 31.7525 103.035 31.3909 102.853 31.0878C102.672 30.7825 102.414 30.5487 102.079 30.3798V30.382ZM102.021 33.2507C101.863 33.5516 101.645 33.7898 101.364 33.963C101.083 34.1362 100.765 34.2228 100.409 34.2228C99.955 34.2228 99.6071 34.1037 99.3629 33.8656C99.1187 33.6274 98.9977 33.3027 98.9977 32.8891C98.9977 32.4756 99.0776 32.1487 99.2397 31.8456C99.3996 31.5446 99.6201 31.3086 99.901 31.1376C100.182 30.9666 100.497 30.8821 100.848 30.8821C101.299 30.8821 101.649 30.999 101.894 31.235C102.138 31.471 102.261 31.7979 102.261 32.2158C102.261 32.6033 102.181 32.9476 102.023 33.2507H102.021Z" fill="#0C0C0C"/>
<path d="M108.701 32.6923C108.599 33.199 108.396 33.5778 108.094 33.829C107.789 34.0801 107.415 34.2057 106.968 34.2057C106.52 34.2057 106.231 34.0845 106.06 33.8441C105.889 33.6017 105.846 33.2704 105.93 32.846L106.458 30.1787H105.6L105.073 32.8374C104.984 33.292 104.995 33.6774 105.109 33.9957C105.222 34.314 105.418 34.5586 105.695 34.7253C105.972 34.892 106.313 34.9765 106.717 34.9765C107.121 34.9765 107.517 34.892 107.865 34.721C108.072 34.6192 108.256 34.4785 108.418 34.3096L108.297 34.9223H109.118L110.056 30.1787H109.198L108.697 32.6945L108.701 32.6923Z" fill="#0C0C0C"/>
<path d="M113.268 30.8867L113.407 30.1765H112.585L111.647 34.9202H112.505L112.979 32.5473C113.087 31.9995 113.292 31.5946 113.599 31.3392C113.906 31.0837 114.295 30.9538 114.766 30.9538H114.883C114.919 30.9538 114.954 30.956 114.991 30.9624L115.151 30.1289C114.649 30.1289 114.23 30.209 113.891 30.3714C113.655 30.484 113.448 30.6572 113.27 30.8845L113.268 30.8867Z" fill="#0C0C0C"/>
<path d="M117.858 31.1396C118.139 30.9685 118.456 30.8841 118.813 30.8841C119.118 30.8841 119.377 30.9404 119.595 31.0508C119.814 31.1612 119.98 31.3322 120.101 31.5661L120.825 31.1634C120.641 30.817 120.384 30.5593 120.056 30.3883C119.727 30.2172 119.334 30.1328 118.876 30.1328C118.34 30.1328 117.86 30.2541 117.436 30.4944C117.013 30.7369 116.682 31.0681 116.444 31.4881C116.207 31.9081 116.088 32.3888 116.088 32.9257C116.088 33.3371 116.181 33.6965 116.365 34.0039C116.548 34.3114 116.81 34.5495 117.147 34.7205C117.484 34.8916 117.882 34.976 118.34 34.976C118.768 34.976 119.167 34.8894 119.537 34.7162C119.907 34.543 120.198 34.3049 120.412 33.9996L119.788 33.5514C119.621 33.7723 119.414 33.939 119.167 34.0537C118.921 34.1663 118.657 34.2248 118.376 34.2248C117.925 34.2248 117.575 34.1057 117.326 33.8675C117.08 33.6294 116.954 33.3046 116.954 32.8911C116.954 32.4776 117.034 32.1506 117.197 31.8475C117.356 31.5466 117.577 31.3106 117.858 31.1396Z" fill="#0C0C0C"/>
<path d="M126.538 31.0813C126.363 30.776 126.117 30.5422 125.801 30.3777C125.486 30.2131 125.114 30.1309 124.684 30.1309C124.172 30.1309 123.713 30.2521 123.312 30.4924C122.91 30.7349 122.592 31.064 122.361 31.4818C122.127 31.8997 122.013 32.376 122.013 32.9129C122.013 33.3308 122.106 33.6924 122.289 33.9998C122.473 34.3072 122.737 34.5454 123.076 34.7164C123.415 34.8875 123.817 34.9719 124.282 34.9719C124.645 34.9719 124.997 34.9134 125.336 34.7965C125.676 34.6796 125.959 34.5107 126.186 34.2899L125.821 33.6729C125.654 33.8396 125.442 33.9738 125.185 34.0712C124.928 34.1687 124.651 34.2185 124.355 34.2185C123.85 34.2185 123.471 34.1016 123.225 33.8656C122.979 33.6296 122.853 33.2962 122.853 32.8675C122.853 32.848 122.856 32.8328 122.856 32.8134H126.739C126.756 32.7181 126.771 32.6142 126.784 32.5038C126.795 32.3933 126.802 32.2851 126.802 32.1768C126.802 31.7481 126.713 31.3801 126.538 31.0748V31.0813ZM123.076 31.8109C123.225 31.51 123.435 31.274 123.705 31.103C123.975 30.9319 124.29 30.8475 124.647 30.8475C124.952 30.8475 125.211 30.9081 125.429 31.0315C125.648 31.1549 125.805 31.3303 125.907 31.5598C125.985 31.7373 126.015 31.9495 126.002 32.1898H122.938C122.972 32.0556 123.018 31.9278 123.076 31.8088V31.8109Z" fill="#0C0C0C"/>
<path d="M134.502 30.7122C134.502 30.7122 134.498 30.7035 134.495 30.7013C134.34 30.4242 134.119 30.2142 133.834 30.0713C133.549 29.9284 133.199 29.857 132.788 29.857C132.408 29.857 132.053 29.9263 131.725 30.0627C131.396 30.1991 131.113 30.3939 130.871 30.6451C130.629 30.8962 130.443 31.1906 130.309 31.5306C130.175 31.8705 130.108 32.2429 130.108 32.6499C130.108 33.0786 130.199 33.4466 130.381 33.7519C130.562 34.055 130.811 34.291 131.126 34.4534C131.442 34.6179 131.798 34.7002 132.198 34.7002C132.598 34.7002 132.942 34.6287 133.253 34.4858C133.484 34.3798 133.689 34.239 133.873 34.0658L133.754 34.6482H134.575L135.898 28.0059H135.04L134.5 30.7165L134.502 30.7122ZM133.344 33.6848C133.063 33.858 132.745 33.9446 132.388 33.9446C131.937 33.9446 131.587 33.8255 131.342 33.5873C131.098 33.3492 130.977 33.0244 130.977 32.6109C130.977 32.1974 131.057 31.8705 131.219 31.5674C131.379 31.2664 131.6 31.0304 131.88 30.8594C132.161 30.6884 132.477 30.6039 132.827 30.6039C133.279 30.6039 133.629 30.7208 133.873 30.9568C134.117 31.1928 134.24 31.5197 134.24 31.9376C134.24 32.3251 134.16 32.6694 134.003 32.9725C133.845 33.2734 133.627 33.5116 133.346 33.6848H133.344Z" fill="#0C0C0C"/>
<path d="M140.887 30.1013C140.572 29.9368 140.2 29.8545 139.77 29.8545C139.258 29.8545 138.799 29.9757 138.397 30.2161C137.995 30.4585 137.678 30.7876 137.447 31.2055C137.213 31.6233 137.099 32.0996 137.099 32.6387C137.099 33.0566 137.192 33.4182 137.375 33.7256C137.559 34.033 137.823 34.2712 138.162 34.4422C138.501 34.6133 138.903 34.6977 139.368 34.6977C139.731 34.6977 140.083 34.6392 140.422 34.5223C140.762 34.4054 141.045 34.2365 141.272 34.0157L140.906 33.3987C140.74 33.5654 140.528 33.6975 140.271 33.797C140.014 33.8945 139.737 33.9443 139.441 33.9443C138.936 33.9443 138.557 33.8274 138.311 33.5914C138.065 33.3554 137.939 33.0241 137.939 32.5933C137.939 32.5738 137.941 32.5586 137.941 32.5392H141.825C141.842 32.4439 141.857 32.34 141.87 32.2295C141.881 32.1191 141.888 32.0109 141.888 31.9026C141.888 31.4739 141.799 31.1059 141.624 30.8028C141.449 30.4975 141.203 30.2637 140.887 30.0991V30.1013ZM138.162 31.5346C138.311 31.2336 138.521 30.9976 138.791 30.8266C139.061 30.6556 139.376 30.5711 139.733 30.5711C140.038 30.5711 140.297 30.6317 140.515 30.7552C140.734 30.8764 140.891 31.0539 140.993 31.2834C141.071 31.461 141.103 31.6731 141.088 31.9135H138.024C138.058 31.7792 138.104 31.6515 138.162 31.5324V31.5346Z" fill="#0C0C0C"/>
<path d="M145.217 33.7012L144.334 29.8994H143.476L144.61 34.643H145.485L148.496 29.8994H147.629L145.217 33.7012Z" fill="#0C0C0C"/>
<path d="M152.901 30.1013C152.585 29.9368 152.213 29.8545 151.783 29.8545C151.271 29.8545 150.813 29.9757 150.411 30.2161C150.009 30.4585 149.691 30.7876 149.46 31.2055C149.227 31.6233 149.112 32.0996 149.112 32.6387C149.112 33.0566 149.205 33.4182 149.389 33.7256C149.573 34.033 149.836 34.2712 150.176 34.4422C150.515 34.6133 150.917 34.6977 151.381 34.6977C151.745 34.6977 152.097 34.6392 152.436 34.5223C152.775 34.4054 153.058 34.2365 153.285 34.0157L152.918 33.3987C152.752 33.5654 152.54 33.6975 152.283 33.797C152.025 33.8945 151.749 33.9443 151.453 33.9443C150.947 33.9443 150.569 33.8274 150.323 33.5914C150.076 33.3554 149.951 33.0241 149.951 32.5933C149.951 32.5738 149.953 32.5586 149.953 32.5392H153.836C153.854 32.4439 153.869 32.34 153.882 32.2295C153.893 32.1191 153.899 32.0109 153.899 31.9026C153.899 31.4739 153.811 31.1059 153.635 30.8028C153.46 30.4975 153.214 30.2637 152.899 30.0991L152.901 30.1013ZM150.176 31.5346C150.325 31.2336 150.534 30.9976 150.804 30.8266C151.075 30.6556 151.39 30.5711 151.747 30.5711C152.051 30.5711 152.311 30.6317 152.529 30.7552C152.747 30.8764 152.905 31.0539 153.007 31.2834C153.084 31.461 153.115 31.6731 153.102 31.9135H150.037C150.072 31.7792 150.117 31.6515 150.176 31.5324V31.5346Z" fill="#0C0C0C"/>
<path d="M155.476 34.6433H156.334L157.656 28.001H156.798L155.476 34.6433Z" fill="#0C0C0C"/>
<path d="M162.8 30.1056C162.467 29.9389 162.076 29.8545 161.629 29.8545C161.093 29.8545 160.615 29.9757 160.194 30.2161C159.775 30.4585 159.444 30.7898 159.206 31.2098C158.968 31.6298 158.85 32.1105 158.85 32.6474C158.85 33.0588 158.943 33.4182 159.126 33.7256C159.31 34.033 159.569 34.2712 159.9 34.4422C160.231 34.6133 160.622 34.6977 161.076 34.6977C161.618 34.6977 162.096 34.5743 162.51 34.3296C162.925 34.085 163.252 33.7516 163.489 33.3316C163.727 32.9115 163.846 32.4309 163.846 31.894C163.846 31.4761 163.755 31.1145 163.574 30.8114C163.392 30.5083 163.135 30.2723 162.8 30.1035V30.1056ZM162.742 32.9743C162.584 33.2753 162.366 33.5134 162.085 33.6866C161.804 33.8598 161.486 33.9464 161.13 33.9464C160.676 33.9464 160.328 33.8274 160.084 33.5892C159.839 33.351 159.716 33.0263 159.716 32.6128C159.716 32.1992 159.796 31.8723 159.958 31.5692C160.118 31.2683 160.339 31.0323 160.62 30.8612C160.9 30.6902 161.216 30.6058 161.566 30.6058C162.018 30.6058 162.368 30.7227 162.612 30.9587C162.856 31.1947 162.979 31.5216 162.979 31.9394C162.979 32.327 162.899 32.6712 162.742 32.9743Z" fill="#0C0C0C"/>
<path d="M169.819 30.097C169.506 29.9368 169.147 29.8545 168.743 29.8545C168.218 29.8545 167.768 29.9801 167.39 30.2312C167.273 30.3092 167.167 30.3979 167.068 30.4953L167.189 29.9021H166.368L165.082 36.3821H165.94L166.444 33.8338C166.444 33.8338 166.446 33.8403 166.448 33.8447C166.603 34.1218 166.824 34.334 167.113 34.479C167.403 34.6263 167.749 34.6977 168.155 34.6977C168.535 34.6977 168.89 34.6284 169.218 34.4877C169.547 34.347 169.83 34.1521 170.072 33.901C170.314 33.6498 170.5 33.3554 170.634 33.0155C170.768 32.6755 170.835 32.3032 170.835 31.8961C170.835 31.4891 170.744 31.1081 170.563 30.8006C170.381 30.4932 170.135 30.2594 169.821 30.097H169.819ZM169.726 32.9743C169.566 33.2753 169.346 33.5134 169.069 33.6866C168.793 33.8598 168.475 33.9464 168.118 33.9464C167.665 33.9464 167.317 33.8274 167.072 33.5892C166.828 33.351 166.707 33.0263 166.707 32.6128C166.707 32.1992 166.785 31.8723 166.945 31.5692C167.103 31.2683 167.323 31.0323 167.606 30.8612C167.889 30.6902 168.207 30.6058 168.557 30.6058C169.009 30.6058 169.359 30.7227 169.603 30.9587C169.847 31.1947 169.97 31.5216 169.97 31.9394C169.97 32.327 169.89 32.6712 169.728 32.9743H169.726Z" fill="#0C0C0C"/>
<path d="M176.196 30.1013C175.88 29.9368 175.508 29.8545 175.078 29.8545C174.566 29.8545 174.108 29.9757 173.706 30.2161C173.304 30.4585 172.986 30.7876 172.755 31.2055C172.522 31.6233 172.407 32.0996 172.407 32.6387C172.407 33.0566 172.5 33.4182 172.684 33.7256C172.868 34.033 173.131 34.2712 173.47 34.4422C173.81 34.6133 174.212 34.6977 174.676 34.6977C175.039 34.6977 175.392 34.6392 175.731 34.5223C176.07 34.4054 176.353 34.2365 176.58 34.0157L176.215 33.3987C176.049 33.5654 175.837 33.6975 175.58 33.797C175.323 33.8945 175.046 33.9443 174.748 33.9443C174.242 33.9443 173.864 33.8274 173.617 33.5914C173.371 33.3554 173.246 33.0241 173.246 32.5933C173.246 32.5738 173.248 32.5586 173.248 32.5392H177.131C177.149 32.4439 177.164 32.34 177.177 32.2295C177.188 32.1191 177.194 32.0109 177.194 31.9026C177.194 31.4739 177.105 31.1059 176.93 30.8028C176.755 30.4975 176.509 30.2637 176.193 30.0991L176.196 30.1013ZM173.47 31.5346C173.62 31.2336 173.829 30.9976 174.099 30.8266C174.369 30.6556 174.685 30.5711 175.042 30.5711C175.346 30.5711 175.606 30.6317 175.824 30.7552C176.042 30.8764 176.2 31.0539 176.302 31.2834C176.379 31.461 176.412 31.6731 176.397 31.9135H173.332C173.367 31.7792 173.412 31.6515 173.47 31.5324V31.5346Z" fill="#0C0C0C"/>
<path d="M180.389 30.6103L180.528 29.9002H179.706L178.769 34.6438H179.626L180.1 32.2709C180.208 31.7231 180.413 31.3183 180.72 31.0628C181.027 30.8073 181.416 30.6774 181.887 30.6774H182.004C182.04 30.6774 182.075 30.6796 182.112 30.6861L182.272 29.8525C181.77 29.8525 181.351 29.9326 181.012 30.095C180.776 30.2076 180.569 30.3808 180.392 30.6081L180.389 30.6103Z" fill="#0C0C0C"/>
<path d="M184.666 30.79C184.869 30.6558 185.169 30.5887 185.569 30.5887C185.813 30.5887 186.058 30.6168 186.302 30.6731C186.546 30.7294 186.766 30.8268 186.963 30.9632L187.302 30.2834C187.112 30.147 186.866 30.0409 186.565 29.9651C186.265 29.8915 185.958 29.8525 185.649 29.8525C185.221 29.8525 184.845 29.9153 184.523 30.0409C184.201 30.1665 183.951 30.344 183.773 30.5735C183.594 30.803 183.505 31.0758 183.505 31.3919C183.505 31.6539 183.57 31.8639 183.698 32.0219C183.825 32.18 183.987 32.3012 184.184 32.3835C184.381 32.4679 184.592 32.5307 184.819 32.5762C185.046 32.6216 185.258 32.6649 185.459 32.7104C185.658 32.7559 185.82 32.8165 185.945 32.8988C186.071 32.9789 186.133 33.0979 186.133 33.2517C186.133 33.466 186.029 33.637 185.82 33.7626C185.61 33.8882 185.301 33.951 184.891 33.951C184.569 33.951 184.262 33.9055 183.966 33.8167C183.672 33.728 183.432 33.6111 183.246 33.4682L182.861 34.148C183.052 34.3039 183.324 34.4338 183.678 34.5377C184.033 34.6416 184.409 34.6936 184.808 34.6936C185.236 34.6936 185.615 34.633 185.943 34.5139C186.272 34.3948 186.524 34.2194 186.706 33.9899C186.887 33.7604 186.978 33.4812 186.978 33.1521C186.978 32.8901 186.916 32.6823 186.79 32.5307C186.665 32.3791 186.503 32.2622 186.304 32.1821C186.105 32.102 185.893 32.0392 185.669 31.9938C185.446 31.9483 185.234 31.9028 185.033 31.8552C184.834 31.8076 184.672 31.7405 184.547 31.6539C184.422 31.5673 184.359 31.446 184.359 31.2923C184.359 31.0888 184.461 30.9199 184.664 30.7857L184.666 30.79Z" fill="#0C0C0C"/>
<path d="M74.0489 37.2697H73.1909L72.9835 38.309H72.173L72.0391 39.0169H72.843L72.3351 41.5587C72.2746 41.8748 72.2897 42.1498 72.3762 42.3814C72.4626 42.6152 72.6096 42.7928 72.8149 42.9183C73.0202 43.0439 73.2666 43.1067 73.5518 43.1067C73.7355 43.1067 73.9257 43.0851 74.1202 43.0439C74.3125 43.0028 74.4919 42.9248 74.6518 42.8101L74.4724 42.1563C74.3774 42.2277 74.2693 42.284 74.1504 42.3208C74.0316 42.3598 73.9127 42.3793 73.7939 42.3793C73.5367 42.3793 73.3638 42.3035 73.2709 42.1519C73.178 42.0004 73.152 41.7947 73.1952 41.5392L73.7031 39.0148H75.0624L75.2051 38.3068H73.8436L74.0532 37.2676L74.0489 37.2697Z" fill="#0C0C0C"/>
<path d="M80.137 38.5095C79.8215 38.345 79.4498 38.2627 79.0197 38.2627C78.5076 38.2627 78.0494 38.3839 77.6474 38.6243C77.2455 38.8667 76.9278 39.1958 76.6966 39.6137C76.4632 40.0315 76.3486 40.5078 76.3486 41.0469C76.3486 41.4648 76.4416 41.8264 76.6253 42.1338C76.809 42.4412 77.0726 42.6794 77.4119 42.8504C77.7512 43.0215 78.1531 43.1059 78.6178 43.1059C78.9808 43.1059 79.3331 43.0474 79.6724 42.9305C80.0117 42.8136 80.2948 42.6448 80.5217 42.4239L80.1543 41.8069C79.9879 41.9736 79.7761 42.1057 79.5189 42.2052C79.2618 42.3027 78.9852 42.3525 78.6869 42.3525C78.1812 42.3525 77.8031 42.2356 77.5567 41.9996C77.3103 41.7636 77.185 41.4323 77.185 41.0015C77.185 40.982 77.1871 40.9668 77.1871 40.9474H81.0706C81.0879 40.8521 81.103 40.7482 81.116 40.6378C81.1268 40.5273 81.1333 40.4191 81.1333 40.3108C81.1333 39.8822 81.0447 39.5141 80.8696 39.211C80.6946 38.9057 80.4482 38.6719 80.1327 38.5073L80.137 38.5095ZM77.4119 39.9428C77.561 39.6418 77.7706 39.4058 78.0408 39.2348C78.3109 39.0638 78.6264 38.9793 78.983 38.9793C79.2877 38.9793 79.547 39.0399 79.7653 39.1634C79.9836 39.2846 80.1413 39.4621 80.2429 39.6916C80.3207 39.8692 80.351 40.0813 80.338 40.3217H77.2736C77.3082 40.1874 77.3535 40.0597 77.4097 39.9406L77.4119 39.9428Z" fill="#0C0C0C"/>
<path d="M87.0896 39.1157C87.0896 39.1157 87.0874 39.1092 87.0852 39.1071C86.9296 38.8299 86.7092 38.6199 86.424 38.477C86.1387 38.3341 85.7886 38.2627 85.378 38.2627C84.9976 38.2627 84.6432 38.332 84.3147 38.4684C83.9862 38.6048 83.7031 38.7996 83.4611 39.0508C83.2191 39.3019 83.0332 39.5964 82.8992 39.9363C82.7652 40.2762 82.6982 40.6486 82.6982 41.0556C82.6982 41.4843 82.789 41.8523 82.9705 42.1576C83.1521 42.4607 83.4006 42.6967 83.7161 42.8591C84.0316 43.0236 84.3882 43.1059 84.788 43.1059C85.3132 43.1059 85.7627 42.9803 86.1409 42.7292C86.2576 42.6534 86.3613 42.5625 86.4607 42.4672L86.3418 43.0518H87.163L88.101 38.3082H87.243L87.0852 39.1179L87.0896 39.1157ZM85.9334 42.0927C85.6524 42.2659 85.3348 42.3525 84.9782 42.3525C84.5265 42.3525 84.1764 42.2334 83.9322 41.9952C83.688 41.7571 83.5648 41.4323 83.5648 41.0188C83.5648 40.6053 83.6448 40.2784 83.8069 39.9752C83.9668 39.6743 84.1872 39.4383 84.4682 39.2673C84.7491 39.0962 85.0646 39.0118 85.4147 39.0118C85.8664 39.0118 86.2165 39.1287 86.4607 39.3647C86.7049 39.6007 86.8259 39.9276 86.8259 40.3455C86.8259 40.733 86.746 41.0773 86.5882 41.3804C86.4304 41.6813 86.2122 41.9195 85.9312 42.0927H85.9334Z" fill="#0C0C0C"/>
<path d="M98.0517 39.2435C97.9415 38.9252 97.7491 38.6806 97.4747 38.5138C97.2002 38.3471 96.8523 38.2627 96.4287 38.2627C95.9338 38.2627 95.4951 38.3709 95.1104 38.5896C94.8792 38.7195 94.6761 38.8971 94.4967 39.1092C94.4643 39.0378 94.4297 38.9663 94.3865 38.9036C94.246 38.6914 94.058 38.5312 93.8181 38.4251C93.5804 38.3168 93.2994 38.2627 92.9774 38.2627C92.5668 38.2627 92.193 38.3471 91.8558 38.5138C91.6613 38.6113 91.4885 38.7433 91.3329 38.9036L91.4496 38.3082H90.6283L89.6904 43.0518H90.5484L91.0498 40.5447C91.1513 40.0315 91.3437 39.6505 91.6311 39.4037C91.9164 39.1569 92.2773 39.0313 92.7116 39.0313C93.146 39.0313 93.4378 39.1504 93.5998 39.3885C93.7641 39.6267 93.803 39.9623 93.7209 40.3909L93.1849 43.0496H94.0429L94.5529 40.5165C94.6544 40.0142 94.8468 39.6418 95.1342 39.3972C95.4195 39.1525 95.7804 39.0291 96.2148 39.0291C96.6491 39.0291 96.9409 39.1482 97.103 39.3864C97.2672 39.6245 97.3039 39.9601 97.2153 40.3888L96.688 43.0475H97.546L98.0733 40.3888C98.1684 39.9406 98.1619 39.5574 98.0517 39.2391V39.2435Z" fill="#0C0C0C"/>
</svg>
