<svg width="362" height="49" viewBox="0 0 362 49" fill="none" xmlns="http://www.w3.org/2000/svg">
<g clip-path="url(#clip0_289_2875)">
<path d="M4.59169 24.3208L4.64238 26.0204C4.74375 27.8754 5.25484 29.2903 6.17987 30.2695C7.1049 31.2487 8.52412 31.7362 10.4418 31.7362H16.3425C17.521 31.7362 18.4798 31.5722 19.219 31.2487C19.9582 30.9209 20.5579 30.4593 21.0099 29.8554C21.4619 29.2558 21.7744 28.5224 21.9434 27.664C22.1123 26.8055 22.1968 25.8436 22.1968 24.7781C22.1968 23.54 22.0279 22.509 21.6942 21.6851C21.3563 20.8612 20.8705 20.2098 20.2327 19.7267C19.5949 19.2478 18.8135 18.9114 17.8885 18.7216C16.9634 18.5318 15.9117 18.4368 14.7332 18.4368H9.93912C8.55791 18.4368 7.29075 18.2384 6.12918 17.8459C4.96762 17.4533 3.97501 16.8666 3.15135 16.0945C2.3277 15.3223 1.68144 14.369 1.20837 13.2345C0.735296 12.0999 0.502983 10.8144 0.502983 9.36933C0.502983 7.4799 0.790206 5.92694 1.36043 4.70615C1.93065 3.48536 2.67405 2.53202 3.58219 1.84613C4.49032 1.16024 5.49983 0.677099 6.61071 0.405332C7.72159 0.129251 8.83247 -0.00878906 9.93912 -0.00878906H16.2454C19.0036 -0.00878906 21.2422 0.789257 22.9571 2.38535C24.672 3.98144 25.5294 6.31087 25.5294 9.36933V9.8309C25.5294 9.96894 25.5126 10.1242 25.4788 10.2925H20.8367C20.8367 9.39952 20.7691 8.58422 20.634 7.84657C20.4988 7.10892 20.2538 6.46617 19.9032 5.914C19.5484 5.36616 19.0627 4.94341 18.4418 4.65007C17.8209 4.35674 17.0226 4.21007 16.0468 4.21007H10.9529C10.4164 4.21007 9.81663 4.24458 9.16193 4.3136C8.50723 4.38262 7.88209 4.58105 7.29497 4.90458C6.70786 5.23243 6.20944 5.74577 5.80817 6.44891C5.40268 7.15205 5.20416 8.12265 5.20416 9.3607C5.20416 11.3191 5.68145 12.6046 6.64027 13.2258C7.59909 13.8427 8.93384 14.1533 10.653 14.1533H15.4471C17.1619 14.1533 18.7248 14.3603 20.1398 14.7702C21.5506 15.1843 22.7544 15.8184 23.747 16.6768C24.7396 17.5353 25.5126 18.6353 26.0659 19.9725C26.6192 21.3141 26.898 22.9102 26.898 24.7651C26.898 26.4475 26.6952 27.9789 26.294 29.3507C25.8885 30.7268 25.276 31.9087 24.4524 32.9052C23.6287 33.9017 22.577 34.6738 21.2971 35.226C20.0173 35.7738 18.5051 36.0499 16.7565 36.0499H10.4502C6.91905 36.0499 4.29602 35.0362 2.58113 33.0087C0.866236 30.9813 0.00878906 28.2334 0.00878906 24.7651V24.2992H4.59169V24.3208Z" fill="black"/>
<path d="M70.4798 27.6685V10.3057H74.9191V27.565C74.9191 28.1819 74.9529 28.7686 75.0205 29.3164C75.0881 29.8643 75.2486 30.356 75.4978 30.7831C75.7512 31.2145 76.1187 31.5552 76.6086 31.8141C77.0944 32.0729 77.7618 32.2023 78.6023 32.2023H80.3172C81.4281 32.2023 82.2855 31.9349 82.8896 31.4043C83.4936 30.8737 83.8146 30.0239 83.8484 28.8548L83.8991 27.6685H88.4904V10.3057H92.9297V36.0674H88.4904V28.3372H87.7343C87.6668 30.7054 87.0374 32.6121 85.842 34.0572C84.6467 35.498 82.7882 36.2227 80.2665 36.2227H78.1968C76.5157 36.2227 75.1683 35.9898 74.1588 35.5282C73.1493 35.0666 72.3679 34.4368 71.8146 33.6474C71.2612 32.858 70.898 31.9478 70.729 30.9168C70.5601 29.8858 70.4756 28.8031 70.4756 27.6685H70.4798Z" fill="black"/>
<path d="M98.9866 36.0157V10.3057H103.426V18.0359H104.182C104.25 15.6332 104.786 13.7437 105.796 12.3676C106.805 10.9959 108.554 10.3057 111.042 10.3057H114.319V14.2743H111.899C110.585 14.2743 109.643 14.5245 109.073 15.0206C108.503 15.521 108.165 16.3708 108.064 17.57L108.013 18.7046H103.422V36.0157H98.9824H98.9866Z" fill="black"/>
<path d="M117.297 18.7046C117.702 16.5045 118.602 14.6841 119.996 13.2433C121.39 11.8025 123.197 10.8923 125.419 10.5127C126.023 10.4092 126.606 10.3488 127.159 10.3315C127.713 10.3143 128.279 10.3057 128.849 10.3057C129.385 10.3057 129.943 10.3143 130.513 10.3315C131.083 10.3488 131.658 10.4092 132.228 10.5127C134.315 10.8578 135.979 11.7076 137.225 13.0622C138.471 14.421 139.159 16.0775 139.295 18.0359V18.45H135.007C134.805 17.1775 134.268 16.1767 133.394 15.4347C132.52 14.6971 131.257 14.3261 129.609 14.3261H127.844C126.767 14.3261 125.825 14.5159 125.018 14.8912C124.211 15.2708 123.548 15.7928 123.024 16.4614C122.501 17.13 122.116 17.9238 121.863 18.8297C121.609 19.7399 121.483 20.7105 121.483 21.7414V23.8034C121.483 24.8689 121.584 25.9258 121.787 26.974C121.989 28.0223 122.34 28.9497 122.847 29.7564C123.35 30.5631 124.017 31.2188 124.841 31.7149C125.664 32.2152 126.682 32.4611 127.894 32.4611H129.812C130.923 32.4611 131.831 32.2368 132.536 31.7925C133.242 31.3482 133.799 30.7356 134.201 29.9635C134.606 29.1913 134.881 28.2984 135.033 27.2846C135.185 26.2709 135.261 25.1968 135.261 24.0622H139.599C139.633 24.5454 139.649 25.0328 139.649 25.5289C139.649 26.025 139.616 26.5168 139.548 26.9956C139.413 28.0956 139.185 29.1525 138.868 30.1662C138.547 31.1799 138.095 32.0988 137.504 32.9227C136.917 33.7466 136.199 34.4498 135.358 35.0364C134.517 35.6188 133.508 36.0329 132.329 36.2745C131.755 36.378 131.185 36.4384 130.615 36.4557C130.044 36.4729 129.419 36.4816 128.748 36.4816H127.738C127.333 36.4816 126.923 36.4729 126.501 36.4557C126.078 36.4384 125.668 36.378 125.263 36.2745C124.084 36.0674 123.041 35.6749 122.133 35.0882C121.225 34.5059 120.435 33.7984 119.763 32.9745C119.092 32.1505 118.551 31.2231 118.15 30.1921C117.744 29.1611 117.461 28.0784 117.292 26.9482C117.225 26.4693 117.166 25.8568 117.115 25.1191C117.064 24.3815 117.039 23.6093 117.039 22.7983C117.039 21.9873 117.056 21.2195 117.09 20.4775C117.124 19.7399 117.191 19.1446 117.292 18.7002L117.297 18.7046Z" fill="black"/>
<path d="M144.343 18.7046C144.748 16.5045 145.61 14.6755 146.94 13.2175C148.271 11.7594 150.096 10.8406 152.415 10.461C152.951 10.3919 153.509 10.3488 154.079 10.3315C154.649 10.3143 155.223 10.3057 155.794 10.3057H156.702C158.214 10.3057 159.578 10.5559 160.786 11.0519C161.999 11.5523 163.021 12.2555 163.865 13.1657C164.706 14.0759 165.344 15.1759 165.783 16.4614C166.218 17.7512 166.438 19.1661 166.438 20.7105V24.1097H148.326V25.7058C148.326 27.6987 148.879 29.3121 149.99 30.5501C151.101 31.7882 152.613 32.4051 154.531 32.4051H156.9C157.707 32.4051 158.404 32.267 158.995 31.9909C159.582 31.7149 160.089 31.3568 160.507 30.9082C160.93 30.4639 161.255 29.9462 161.492 29.3639C161.728 28.7815 161.876 28.1603 161.944 27.5089H166.18C166.146 28.5399 165.961 29.5278 165.627 30.4725C165.289 31.4172 164.829 32.2756 164.241 33.0478C163.654 33.82 162.936 34.4843 162.096 35.0321C161.255 35.5843 160.296 35.9768 159.219 36.2184C158.679 36.3219 158.142 36.3823 157.606 36.3996C157.069 36.4169 156.512 36.4255 155.941 36.4255H154.78C151.853 36.4255 149.5 35.5929 147.718 33.9278C145.935 32.2627 144.807 29.9333 144.338 26.9482C144.237 26.2623 144.178 25.5677 144.161 24.8603C144.144 24.1571 144.136 23.4626 144.136 22.7724V20.7363C144.136 20.0677 144.203 19.3904 144.338 18.7002L144.343 18.7046ZM162.252 20.5077C162.218 19.6493 162.1 18.8426 161.897 18.0877C161.694 17.3328 161.382 16.6728 160.964 16.1034C160.541 15.5383 159.979 15.0896 159.274 14.7618C158.569 14.4339 157.711 14.2743 156.702 14.2743H154.332C152.516 14.2743 151.059 14.7488 149.969 15.6892C148.875 16.6339 148.33 18.0014 148.33 19.7873V20.5077H162.256H162.252Z" fill="black"/>
<path d="M171.734 36.0674V10.3057H176.174V12.5229C176.71 11.837 177.394 11.2935 178.218 10.901C179.042 10.5084 180.043 10.31 181.221 10.31H183.895C185.542 10.31 186.898 10.5602 187.958 11.0563C189.018 11.5567 189.867 12.2167 190.505 13.0406C191.177 12.2167 192.017 11.5567 193.027 11.0563C194.036 10.5602 195.278 10.31 196.761 10.31H199.937C201.618 10.31 202.991 10.5688 204.051 11.0821C205.111 11.5955 205.96 12.2684 206.598 13.0924C207.236 13.9163 207.675 14.861 207.912 15.9265C208.148 16.992 208.267 18.092 208.267 19.2222V36.0718H203.878V19.3732C203.878 18.7563 203.819 18.1438 203.701 17.5442C203.582 16.9445 203.354 16.401 203.021 15.9222C202.683 15.4434 202.248 15.0551 201.707 14.7618C201.166 14.4684 200.461 14.3218 199.587 14.3218H197.014C196.444 14.3218 195.87 14.3822 195.299 14.503C194.725 14.6237 194.214 14.8653 193.762 15.2234C193.306 15.5857 192.938 16.0818 192.651 16.7159C192.364 17.35 192.224 18.1826 192.224 19.2136V36.0631H187.836V19.3732C187.836 18.7563 187.777 18.1438 187.658 17.5442C187.54 16.9445 187.312 16.401 186.978 15.9222C186.64 15.4434 186.205 15.0551 185.665 14.7618C185.124 14.4684 184.419 14.3218 183.544 14.3218H180.972C180.402 14.3218 179.827 14.3822 179.257 14.503C178.687 14.6237 178.172 14.8653 177.72 15.2234C177.268 15.5857 176.896 16.0818 176.609 16.7159C176.322 17.35 176.178 18.1826 176.178 19.2136V36.0631H171.739L171.734 36.0674Z" fill="black"/>
<path d="M222.442 20.0936H231.726V18.2904C231.726 17.1559 231.397 16.1939 230.742 15.4045C230.087 14.6151 229.018 14.2182 227.536 14.2182H222.843C221.462 14.2182 220.448 14.4857 219.789 15.0163C219.135 15.5512 218.771 16.332 218.704 17.363H214.518C214.518 16.3665 214.662 15.439 214.945 14.5806C215.232 13.7222 215.684 12.9759 216.309 12.3374C216.93 11.7033 217.737 11.2029 218.729 10.8449C219.722 10.4825 220.938 10.3057 222.387 10.3057H228.389C229.703 10.3057 230.843 10.5041 231.819 10.8966C232.795 11.2935 233.601 11.8327 234.239 12.5186C234.877 13.2045 235.359 14.0112 235.675 14.9386C235.996 15.8661 236.153 16.8626 236.153 17.9281L236.102 36.0674H231.663V28.3372H230.856C230.856 29.4717 230.687 30.5372 230.353 31.5337C230.015 32.5302 229.53 33.3972 228.892 34.1349C228.254 34.8725 227.46 35.4506 226.522 35.8604C225.58 36.2745 224.469 36.4772 223.194 36.4772H221.479C218.721 36.4772 216.668 35.7051 215.325 34.1564C213.977 32.6121 213.306 30.6192 213.306 28.1776C213.306 26.8058 213.534 25.6109 213.986 24.5972C214.442 23.5834 215.071 22.7422 215.878 22.0736C216.685 21.405 217.644 20.9046 218.754 20.581C219.865 20.2532 221.09 20.0936 222.438 20.0936H222.442ZM217.597 28.0784C217.597 28.7297 217.656 29.3423 217.775 29.9074C217.893 30.4725 218.104 30.9643 218.404 31.3741C218.708 31.7882 219.109 32.1117 219.616 32.3533C220.119 32.5949 220.761 32.7156 221.534 32.7156H223.046C224.389 32.7156 225.407 32.2713 226.1 31.3741C226.788 30.4811 227.135 29.3811 227.135 28.0784V27.6642H231.675L231.726 23.8509H222.898C221.183 23.8509 219.87 24.1701 218.961 24.8042C218.053 25.4383 217.597 26.5297 217.597 28.074V28.0784Z" fill="black"/>
<path d="M242.218 49.0001V10.3574H246.657V18.0877H247.413C247.481 15.6849 248.127 13.7696 249.356 12.3418C250.586 10.9182 252.461 10.2021 254.983 10.2021H257.504C259.219 10.2021 260.583 10.5472 261.589 11.2331C262.598 11.919 263.363 12.7947 263.882 13.8602C264.402 14.9257 264.748 16.112 264.917 17.4148C265.086 18.7218 265.171 19.9728 265.171 21.1764V24.8862C265.171 28.4925 264.44 31.2662 262.974 33.2074C261.513 35.1486 259.13 36.1192 255.836 36.1192H246.653V49.0001H242.214H242.218ZM255.033 32.0988C256.246 32.0988 257.221 31.9176 257.96 31.5596C258.7 31.1972 259.274 30.7098 259.675 30.0929C260.081 29.476 260.355 28.7254 260.507 27.8497C260.66 26.974 260.736 26.0207 260.736 24.9897V22.1556C260.736 21.0556 260.719 20.0246 260.685 19.0626C260.651 18.1006 260.499 17.2595 260.229 16.5391C259.958 15.8187 259.515 15.2492 258.894 14.8394C258.273 14.4253 257.373 14.2226 256.195 14.2226H254.932C253.855 14.2226 252.989 14.49 252.334 15.0206C251.68 15.5555 251.316 16.4053 251.249 17.5701V18.7563H246.657V32.1031H255.033V32.0988Z" fill="black"/>
<path d="M270.725 31.0723H275.265V36.0201H270.725V31.0723Z" fill="black"/>
<path d="M281.572 49.0001V10.3574H286.011V18.0877H286.767C286.835 15.6849 287.481 13.7696 288.71 12.3418C289.939 10.9182 291.815 10.2021 294.336 10.2021H296.858C298.573 10.2021 299.937 10.5472 300.942 11.2331C301.952 11.919 302.716 12.7947 303.236 13.8602C303.755 14.9257 304.102 16.112 304.271 17.4148C304.44 18.7218 304.524 19.9728 304.524 21.1764V24.8862C304.524 28.4925 303.793 31.2662 302.328 33.2074C300.866 35.1486 298.484 36.1192 295.189 36.1192H286.007V49.0001H281.567H281.572ZM294.387 32.0988C295.599 32.0988 296.575 31.9176 297.314 31.5596C298.053 31.1972 298.628 30.7098 299.029 30.0929C299.43 29.476 299.709 28.7254 299.861 27.8497C300.013 26.974 300.089 26.0207 300.089 24.9897V22.1556C300.089 21.0556 300.072 20.0246 300.038 19.0626C300.005 18.1006 299.853 17.2595 299.582 16.5391C299.312 15.8187 298.868 15.2492 298.247 14.8394C297.627 14.4253 296.727 14.2226 295.548 14.2226H294.285C293.208 14.2226 292.342 14.49 291.688 15.0206C291.033 15.5555 290.67 16.4053 290.602 17.5701V18.7563H286.011V32.1031H294.387V32.0988Z" fill="black"/>
<path d="M310.581 36.0157V10.3057H315.021V18.0359H315.777C315.844 15.6332 316.381 13.7437 317.39 12.3676C318.4 10.9959 320.148 10.3057 322.636 10.3057H325.914V14.2743H323.494C322.18 14.2743 321.238 14.5245 320.668 15.0206C320.094 15.521 319.76 16.3708 319.658 17.57L319.608 18.7046H315.016V36.0157H310.577H310.581Z" fill="black"/>
<path d="M347.106 14.3782C347.836 14.3782 348.546 14.3868 349.218 14.4041C349.699 14.417 350.202 14.4774 350.709 14.581H350.734L350.759 14.5896C352.36 14.8959 353.665 15.5516 354.759 16.5912C355.743 17.5316 356.347 18.7653 356.605 20.3657L356.614 20.4132L356.622 20.4606C356.694 20.8445 356.736 21.2457 356.749 21.6512C356.766 22.2465 356.774 22.8504 356.774 23.4457C356.774 24.0022 356.766 24.576 356.749 25.1411C356.736 25.5336 356.694 25.9262 356.622 26.3273C356.347 27.8587 355.756 28.9846 354.772 29.8689C353.665 30.8611 352.36 31.4823 350.793 31.7713C350.244 31.8576 349.686 31.918 349.142 31.9482C348.495 31.9827 347.832 31.9999 347.169 31.9999C344.542 31.9999 340.951 31.849 339.553 31.6764C338.43 31.4952 337.387 31.1631 336.445 30.6842C335.596 30.2485 334.873 29.6791 334.248 28.9415C333.754 28.3591 333.391 27.5309 333.167 26.474C333.099 26.0556 333.057 25.6415 333.044 25.2446C333.027 24.6493 333.019 24.0454 333.019 23.4501V22.13C333.019 19.9085 333.534 18.252 334.595 17.07C335.731 15.8018 337.395 14.9994 339.684 14.6198C340.288 14.5292 340.901 14.4688 341.496 14.4386C342.337 14.4084 345.839 14.3868 347.11 14.3868M347.11 10.017C346.358 10.017 342.075 10.0343 341.306 10.0731C340.538 10.1119 339.777 10.1896 339.03 10.3017C335.769 10.8366 333.239 12.1092 331.439 14.1194C329.64 16.1296 328.74 18.7998 328.74 22.13V23.4501C328.74 24.1014 328.749 24.7442 328.77 25.374C328.791 26.0038 328.854 26.6466 328.968 27.2979C329.344 29.1356 330.029 30.6368 331.021 31.8058C332.014 32.9748 333.188 33.9023 334.535 34.5925C335.883 35.2827 337.349 35.7486 338.92 35.9988C340.495 36.249 345.598 36.3741 347.169 36.3741C347.917 36.3741 348.652 36.3525 349.361 36.318C350.071 36.2792 350.785 36.2015 351.498 36.0894C353.86 35.6666 355.896 34.6917 357.602 33.1603C359.308 31.629 360.386 29.6187 360.833 27.1297C360.947 26.5171 361.011 25.9046 361.032 25.292C361.049 24.6795 361.061 24.0669 361.061 23.4544C361.061 22.803 361.053 22.1602 361.032 21.5304C361.011 20.9006 360.947 20.2751 360.833 19.6626C360.419 17.0959 359.372 15.0123 357.682 13.4033C355.997 11.7943 353.953 10.7633 351.553 10.3017C350.802 10.1464 350.062 10.0601 349.332 10.0429C348.601 10.0213 347.862 10.0127 347.11 10.0127V10.017Z" fill="black"/>
<path d="M50.1926 14.3782C50.9233 14.3782 51.6329 14.3868 52.3045 14.4041C52.786 14.417 53.2887 14.4774 53.7955 14.581H53.8209L53.8462 14.5896C55.4471 14.8959 56.7522 15.5516 57.8462 16.5912C58.8304 17.5316 59.4344 18.7653 59.6921 20.3657L59.7005 20.4132L59.7089 20.4606C59.7808 20.8445 59.823 21.2457 59.8357 21.6512C59.8526 22.2465 59.861 22.8504 59.861 23.4457C59.861 24.0022 59.8526 24.576 59.8357 25.1411C59.823 25.5336 59.7808 25.9262 59.7089 26.3273C59.4344 27.8587 58.8431 28.9846 57.8589 29.8689C56.7522 30.8611 55.4471 31.4823 53.88 31.7713C53.3309 31.8576 52.7733 31.918 52.2285 31.9482C51.5822 31.9827 50.9191 31.9999 50.2559 31.9999C47.6287 31.9999 44.0384 31.849 42.6403 31.6764C41.5167 31.4952 40.4734 31.1631 39.5315 30.6842C38.6825 30.2485 37.9602 29.6791 37.3351 28.9415C36.8409 28.3591 36.4776 27.5309 36.2538 26.474C36.1862 26.0556 36.1439 25.6415 36.1313 25.2446C36.1144 24.6493 36.1059 24.0454 36.1059 23.4501V22.13C36.1059 19.9085 36.6212 18.252 37.6814 17.07C38.8177 15.8018 40.4819 14.9994 42.7712 14.6198C43.3752 14.5292 43.9877 14.4688 44.5833 14.4386C45.4238 14.4084 48.9254 14.3868 50.1968 14.3868M50.1968 10.017C49.4449 10.017 45.1619 10.0343 44.3932 10.0731C43.6244 10.1119 42.8641 10.1896 42.1165 10.3017C38.8557 10.8366 36.3256 12.1092 34.5262 14.1194C32.7268 16.1296 31.8271 18.7998 31.8271 22.13V23.4501C31.8271 24.1014 31.8356 24.7442 31.8567 25.374C31.8778 26.0038 31.9412 26.6466 32.0552 27.2979C32.4312 29.1356 33.1154 30.6368 34.108 31.8058C35.1007 32.9748 36.2749 33.9023 37.6223 34.5925C38.9697 35.2827 40.4354 35.7486 42.0067 35.9988C43.5822 36.249 48.6846 36.3741 50.2559 36.3741C51.0035 36.3741 51.7385 36.3525 52.4481 36.318C53.1577 36.2792 53.8716 36.2015 54.5854 36.0894C56.9465 35.6666 58.9824 34.6917 60.6889 33.1603C62.3953 31.629 63.4724 29.6187 63.9202 27.1297C64.0342 26.5171 64.0976 25.9046 64.1187 25.292C64.1356 24.6795 64.1482 24.0669 64.1482 23.4544C64.1482 22.803 64.1398 22.1602 64.1187 21.5304C64.0976 20.9006 64.0342 20.2751 63.9202 19.6626C63.5062 17.0959 62.4587 15.0123 60.7691 13.4033C59.0838 11.7943 57.0395 10.7633 54.6403 10.3017C53.8884 10.1464 53.1493 10.0601 52.4185 10.0429C51.6878 10.0213 50.9486 10.0127 50.1968 10.0127V10.017Z" fill="black"/>
</g>
<defs>
<clipPath id="clip0_289_2875">
<rect width="361.053" height="49" fill="white"/>
</clipPath>
</defs>
</svg>
