<svg width="37" height="37" viewBox="0 0 37 37" fill="none" xmlns="http://www.w3.org/2000/svg">
<path d="M18.3333 0C15.9922 0 13.4657 3.59516 12.0742 9.16667H24.5925C23.201 3.59516 20.6745 0 18.3333 0ZM11.1217 1.48242C7.48075 3.04625 4.45595 5.76583 2.48145 9.16667H8.27149C8.92599 6.16 9.9026 3.55225 11.1217 1.48242ZM25.5449 1.48242C26.7623 3.55225 27.7407 6.16 28.3952 9.16667H34.1852C32.2107 5.76583 29.1859 3.04625 25.5449 1.48242ZM0.845056 12.8334C0.296885 14.5714 0 16.4175 0 18.3334C0 20.2492 0.296885 22.0954 0.845056 23.8334H7.66635C7.45735 22.0825 7.33334 20.251 7.33334 18.3334C7.33334 16.4157 7.45735 14.5842 7.66635 12.8334H0.845056ZM11.3688 12.8334C11.1323 14.5549 11 16.3992 11 18.3334C11 20.2675 11.1323 22.1119 11.3688 23.8334H25.2979C25.5325 22.1119 25.6667 20.2675 25.6667 18.3334C25.6667 16.3992 25.5344 14.5549 25.2979 12.8334H11.3688ZM29.0003 12.8334C29.2093 14.5842 29.3333 16.4157 29.3333 18.3334C29.3333 20.251 29.2093 22.0825 29.0003 23.8334H35.8216C36.3698 22.0954 36.6667 20.2492 36.6667 18.3334C36.6667 16.4175 36.3698 14.5714 35.8216 12.8334H29.0003ZM2.48145 27.5C4.45595 30.9009 7.48075 33.6205 11.1217 35.1843C9.9044 33.1145 8.92599 30.5067 8.27149 27.5H2.48145ZM12.0742 27.5C13.4657 33.0716 15.9903 36.6667 18.3333 36.6667C20.6763 36.6667 23.201 33.0716 24.5925 27.5H12.0742ZM28.3952 27.5C27.7407 30.5067 26.7641 33.1145 25.5449 35.1843C29.1859 33.6205 32.2107 30.9009 34.1852 27.5H28.3952Z" fill="#D8D8D8"/>
</svg>
