<svg width="41" height="39" viewBox="0 0 41 39" fill="none" xmlns="http://www.w3.org/2000/svg">
<path d="M3.66309 0.5C1.64642 0.5 0.014323 2.15 0.014323 4.16667L0 26.1631C0 28.1889 1.64083 29.8333 3.66667 29.8333H7.32975V37.1667L14.6631 29.8333H18.3298C18.3298 29.2108 18.3784 28.5987 18.4658 28H18.4766C18.5005 27.833 18.5394 27.6707 18.5697 27.5059C18.6329 27.1671 18.7064 26.8323 18.7953 26.5033C20.262 21.0338 25.2296 17 31.1631 17C31.7856 17 32.3977 17.0487 32.9964 17.1361V17.1468C34.2926 17.332 35.5228 17.7106 36.6631 18.2533V4.16667C36.6631 2.15 35.0131 0.5 32.9964 0.5H3.66309ZM29.4479 20.6667C29.2114 20.6667 29.0135 20.8438 28.986 21.0785L28.7712 22.9333C27.8838 23.2413 27.0831 23.7087 26.3864 24.3118L24.6677 23.5671C24.4513 23.4736 24.2013 23.5587 24.084 23.764L22.3652 26.736C22.2479 26.9413 22.3017 27.2018 22.4906 27.3411L23.9694 28.4368C23.8832 28.8915 23.8298 29.3567 23.8298 29.8333C23.8298 30.31 23.8814 30.7734 23.9694 31.2262L22.4942 32.3255C22.3053 32.4667 22.2497 32.7272 22.3688 32.9307L24.084 35.9027C24.2013 36.108 24.4549 36.1895 24.6712 36.096L26.3864 35.3548C27.0812 35.9562 27.8838 36.4254 28.7712 36.7334L28.986 38.5882C29.0117 38.8247 29.2114 39 29.4479 39H32.8783C33.1148 39 33.3127 38.8229 33.3402 38.5882L33.555 36.7334C34.4424 36.4254 35.2431 35.958 35.9398 35.3548L37.6585 36.0996C37.8749 36.1931 38.1249 36.1062 38.2422 35.9027L39.9609 32.9307C40.0783 32.7253 40.0245 32.4649 39.8356 32.3255L38.3568 31.2262C38.4448 30.7734 38.4964 30.31 38.4964 29.8333C38.4964 29.3567 38.4448 28.8933 38.3568 28.4404L39.832 27.3411C40.0209 27.2 40.0765 26.9395 39.9574 26.736L38.2422 23.764C38.1249 23.5587 37.8713 23.4771 37.655 23.5706L35.9398 24.3118C35.245 23.7105 34.4424 23.2413 33.555 22.9333L33.3402 21.0785C33.3145 20.842 33.1148 20.6667 32.8783 20.6667H29.4479ZM31.1631 26.625C32.9341 26.625 34.3714 28.0605 34.3714 29.8333C34.3714 31.6043 32.9341 33.0417 31.1631 33.0417C29.3921 33.0417 27.9548 31.6043 27.9548 29.8333C27.9548 28.0605 29.3921 26.625 31.1631 26.625Z" fill="#D8D8D8"/>
</svg>
