<svg width="37" height="38" viewBox="0 0 37 38" fill="none" xmlns="http://www.w3.org/2000/svg">
<path d="M18.3333 0.666992C12.3347 0.666992 7.02499 3.55964 3.68099 8.01464L10.3161 14.6497C11.8689 11.7952 14.8555 9.83366 18.3333 9.83366C20.383 9.83366 22.256 10.5303 23.7832 11.6669H34.8333L26.5368 14.9863C27.1345 16.2036 27.5 17.5538 27.5 19.0003C27.5 22.0124 26.0254 24.6634 23.7832 26.3336H23.8333L16.5609 37.2441C17.1439 37.3009 17.7338 37.3336 18.3333 37.3336C28.4588 37.3336 36.6667 29.1258 36.6667 19.0003C36.6667 8.87482 28.4588 0.666992 18.3333 0.666992ZM3.67741 8.02181C1.38025 11.0853 0 14.8753 0 19.0003C0 28.5171 7.25373 36.3348 16.5322 37.2405L19.5973 28.038C19.1793 28.0967 18.766 28.1669 18.3333 28.1669C13.2715 28.1669 9.16667 24.0621 9.16667 19.0003L3.67741 8.02181ZM18.3333 13.5003C16.8746 13.5003 15.4757 14.0797 14.4442 15.1112C13.4128 16.1426 12.8333 17.5416 12.8333 19.0003C12.8333 20.459 13.4128 21.8579 14.4442 22.8894C15.4757 23.9208 16.8746 24.5003 18.3333 24.5003C19.792 24.5003 21.191 23.9208 22.2224 22.8894C23.2539 21.8579 23.8333 20.459 23.8333 19.0003C23.8333 17.5416 23.2539 16.1426 22.2224 15.1112C21.191 14.0797 19.792 13.5003 18.3333 13.5003Z" fill="#D8D8D8"/>
</svg>
