<svg width="26" height="38" viewBox="0 0 26 38" fill="none" xmlns="http://www.w3.org/2000/svg">
<path d="M25.3333 6.33333C25.3333 2.85 22.4833 0 19 0H6.33333C2.85 0 0 2.85 0 6.33333V31.6667C0 35.15 2.85 38 6.33333 38H19C22.4833 38 25.3333 35.15 25.3333 31.6667V6.33333ZM14.25 34.8333H11.0833C10.1333 34.8333 9.5 34.2 9.5 33.25C9.5 32.3 10.1333 31.6667 11.0833 31.6667H14.25C15.2 31.6667 15.8333 32.3 15.8333 33.25C15.8333 34.2 15.2 34.8333 14.25 34.8333ZM22.1667 26.9167C22.1667 27.8667 21.5333 28.5 20.5833 28.5H4.75C3.8 28.5 3.16667 27.8667 3.16667 26.9167V7.91667C3.16667 6.96667 3.8 6.33333 4.75 6.33333H20.5833C21.5333 6.33333 22.1667 6.96667 22.1667 7.91667V26.9167Z" fill="#D8D8D8"/>
</svg>
