<svg width="40" height="40" viewBox="0 0 40 40" fill="none" xmlns="http://www.w3.org/2000/svg">
<path d="M25.8361 27.5L31.908 12.5H27.883L23.7299 22.193L20.776 12.5H17.6814L14.5111 22.193L12.2744 17.7766L10.251 23.9844L12.3057 27.5H16.2666L19.1322 18.807L21.8666 27.5H25.8361Z" fill="#D8D8D8"/>
<path d="M3.81172 22.3508H6.28438C6.95996 22.3603 7.63358 22.2759 8.28594 22.1L8.925 20.132L10.7125 14.6328C10.5746 14.4157 10.4177 14.2113 10.2437 14.0219C9.32812 13.0073 7.9862 12.5 6.21797 12.5H0V27.5H3.81172V22.3508ZM7.08516 15.9508C7.44401 16.3112 7.62318 16.7935 7.62266 17.3977C7.62214 18.0018 7.46589 18.4844 7.15391 18.8453C6.80807 19.2422 6.17161 19.4404 5.24453 19.4398H3.81172V15.4102H5.25078C6.11484 15.4102 6.7263 15.5904 7.08516 15.9508ZM29.4414 24.8133L30.5969 21.9031H33.932L32.3492 17.4883L34.3289 12.5L40 27.5H35.818L34.8492 24.8133H29.4414Z" fill="#D8D8D8"/>
</svg>
